<svg width="424.000000" height="315.930908" viewBox="0 0 424 315.931" fill="none" xmlns="http://www.w3.org/2000/svg" xmlns:xlink="http://www.w3.org/1999/xlink">
	<desc>
			Created with Pixso.
	</desc>
	<defs/>
	<path id="Vector" d="M0 277.635L424 277.635L424 277.847L0 277.847L0 277.635Z" fill="#E6E6E6" fill-opacity="1.000000" fill-rule="evenodd"/>
	<path id="Vector" d="M381.286 285.115L397.203 285.115L397.203 285.327L381.286 285.327L381.286 285.115Z" fill="#E6E6E6" fill-opacity="1.000000" fill-rule="evenodd"/>
	<path id="Vector" d="M316.363 290.932L323.732 290.932L323.732 291.144L316.363 291.144L316.363 290.932Z" fill="#E6E6E6" fill-opacity="1.000000" fill-rule="evenodd"/>
	<path id="Vector" d="M237.406 288.006L253.823 288.006L253.823 288.218L237.406 288.218L237.406 288.006Z" fill="#E6E6E6" fill-opacity="1.000000" fill-rule="evenodd"/>
	<path id="Vector" d="M68.6286 287.896L105.254 287.896L105.254 288.108L68.6286 288.108L68.6286 287.896Z" fill="#E6E6E6" fill-opacity="1.000000" fill-rule="evenodd"/>
	<path id="Vector" d="M55.7136 287.896L61.0814 287.896L61.0814 288.108L55.7136 288.108L55.7136 287.896Z" fill="#E6E6E6" fill-opacity="1.000000" fill-rule="evenodd"/>
	<path id="Vector" d="M160.526 282.876L239.967 282.876L239.967 283.088L160.526 283.088L160.526 282.876Z" fill="#E6E6E6" fill-opacity="1.000000" fill-rule="evenodd"/>
	<path id="Vector" d="M200.976 239.814L37.2357 239.814C35.9529 239.812 34.7235 239.301 33.8173 238.393C32.9111 237.485 32.4021 236.255 32.4021 234.972L32.4021 4.79968C32.4132 3.52432 32.9272 2.30484 33.8322 1.40616C34.7372 0.507507 35.9603 0.00219727 37.2357 0L200.976 0C202.26 0 203.492 0.510132 204.4 1.41821C205.308 2.32629 205.818 3.55789 205.818 4.84207L205.818 234.972C205.818 236.257 205.308 237.488 204.4 238.396C203.492 239.304 202.26 239.814 200.976 239.814ZM37.2357 0.169586C36.0092 0.171844 34.8337 0.660645 33.9672 1.52872C33.1007 2.39679 32.6141 3.57318 32.6141 4.79968L32.6141 234.972C32.6141 236.199 33.1007 237.375 33.9672 238.243C34.8337 239.111 36.0092 239.6 37.2357 239.602L200.976 239.602C202.203 239.6 203.38 239.112 204.247 238.244C205.115 237.376 205.604 236.2 205.606 234.972L205.606 4.79968C205.604 3.57239 205.115 2.39603 204.247 1.5282C203.38 0.66037 202.203 0.171844 200.976 0.169586L37.2357 0.169586Z" fill="#E6E6E6" fill-opacity="1.000000" fill-rule="nonzero"/>
	<path id="Vector" d="M384.407 239.814L220.658 239.814C219.375 239.812 218.144 239.301 217.237 238.394C216.329 237.486 215.818 236.256 215.816 234.972L215.816 4.79968C215.829 3.52353 216.345 2.30408 217.252 1.40564C218.158 0.507202 219.382 0.00216675 220.658 0L384.407 0C385.681 0.00442505 386.902 0.510712 387.805 1.40915C388.708 2.30759 389.221 3.52579 389.232 4.79968L389.232 234.972C389.232 236.254 388.724 237.483 387.82 238.39C386.915 239.298 385.688 239.81 384.407 239.814ZM220.658 0.169586C219.431 0.171844 218.254 0.66037 217.387 1.5282C216.519 2.39603 216.03 3.57239 216.028 4.79968L216.028 234.972C216.03 236.2 216.519 237.376 217.387 238.244C218.254 239.112 219.431 239.6 220.658 239.602L384.407 239.602C385.634 239.6 386.811 239.112 387.678 238.244C388.546 237.376 389.035 236.2 389.037 234.972L389.037 4.79968C389.035 3.57239 388.546 2.39603 387.678 1.5282C386.811 0.66037 385.634 0.171844 384.407 0.169586L220.658 0.169586Z" fill="#E6E6E6" fill-opacity="1.000000" fill-rule="nonzero"/>
	<path id="Vector" d="M49.7861 15.8406L221.294 15.8406L221.294 138.063L49.7861 138.063L49.7861 15.8406Z" fill="#FAFAFA" fill-opacity="1.000000" fill-rule="evenodd"/>
	<path id="Vector" d="M51.2701 15.8406L224.466 15.8406L224.466 138.063L51.2701 138.063L51.2701 15.8406Z" fill="#F5F5F5" fill-opacity="1.000000" fill-rule="evenodd"/>
	<path id="Vector" d="M220.022 20.8268L220.022 133.068L55.7136 133.068L55.7136 20.8268L220.022 20.8268Z" fill="#FAFAFA" fill-opacity="1.000000" fill-rule="evenodd"/>
	<path id="Vector" d="M85.6311 133.068L111.699 20.8268L145.873 20.8268L119.805 133.068L85.6311 133.068Z" fill="#FFFFFF" fill-opacity="1.000000" fill-rule="nonzero"/>
	<path id="Vector" d="M125.334 133.068L151.41 20.8268L166.844 20.8268L140.768 133.068L125.334 133.068Z" fill="#FFFFFF" fill-opacity="1.000000" fill-rule="nonzero"/>
	<path id="Vector" d="M220.022 20.8268L220.022 133.068L219.454 133.068L219.454 20.8268L220.022 20.8268Z" fill="#FAFAFA" fill-opacity="1.000000" fill-rule="evenodd"/>
	<path id="Vector" d="M46.4534 15.6371L46.4534 64.0749L59.2667 64.0749C59.2667 64.0749 82.256 49.0568 87.5221 18.1642C87.6497 17.4243 87.6136 16.6654 87.4164 15.941C87.2192 15.2166 86.8657 14.5441 86.3807 13.971C85.8957 13.3979 85.291 12.938 84.6091 12.6237C83.9273 12.3094 83.1849 12.1483 82.4341 12.1519L49.9387 12.1519C49.0143 12.1519 48.1278 12.519 47.4742 13.1727C46.8206 13.8263 46.4534 14.7128 46.4534 15.6371Z" fill="#E0E0E0" fill-opacity="1.000000" fill-rule="nonzero"/>
	<path id="Vector" d="M46.4534 153.013L46.4534 67.9842L59.2667 67.9842C59.2667 67.9842 85.2749 118.059 88.2853 153.013L46.4534 153.013Z" fill="#E0E0E0" fill-opacity="1.000000" fill-rule="nonzero"/>
	<path id="Vector" d="M46.9199 64.0749L58.8936 64.0749C59.6008 64.0749 60.1741 64.6482 60.1741 65.3554L60.1741 66.7037C60.1741 67.4109 59.6008 67.9842 58.8936 67.9842L46.9199 67.9842C46.2127 67.9842 45.6394 67.4109 45.6394 66.7037L45.6394 65.3554C45.6394 64.6482 46.2127 64.0749 46.9199 64.0749Z" fill="#F5F5F5" fill-opacity="1.000000" fill-rule="evenodd"/>
	<path id="Vector" d="M228.112 15.6371L228.112 64.0749L215.273 64.0749C215.273 64.0749 192.25 49.0568 187.018 18.1642C186.892 17.4245 186.929 16.6662 187.127 15.9424C187.325 15.2186 187.678 14.5468 188.163 13.974C188.648 13.4013 189.252 12.9414 189.933 12.6266C190.614 12.3119 191.356 12.1498 192.106 12.1519L224.635 12.1519C225.557 12.1563 226.44 12.5252 227.092 13.1781C227.743 13.831 228.11 14.7149 228.112 15.6371Z" fill="#E0E0E0" fill-opacity="1.000000" fill-rule="nonzero"/>
	<path id="Vector" d="M228.112 153.013L228.112 67.9842L215.273 67.9842C215.273 67.9842 189.274 118.059 186.255 153.013L228.112 153.013Z" fill="#E0E0E0" fill-opacity="1.000000" fill-rule="nonzero"/>
	<path id="Vector" d="M227.62 67.9757L215.646 67.9757C214.939 67.9757 214.366 67.4024 214.366 66.6952L214.366 65.3469C214.366 64.6397 214.939 64.0664 215.646 64.0664L227.62 64.0664C228.327 64.0664 228.901 64.6397 228.901 65.3469L228.901 66.6952C228.901 67.4024 228.327 67.9757 227.62 67.9757Z" fill="#F5F5F5" fill-opacity="1.000000" fill-rule="evenodd"/>
	<path id="Vector" d="M196.058 168.464L224.237 168.464L224.237 277.635L196.058 277.635L196.058 168.464Z" fill="#FAFAFA" fill-opacity="1.000000" fill-rule="evenodd"/>
	<path id="Vector" d="M216.715 277.635L224.237 277.635L224.237 265.025L208.828 265.025L216.715 277.635Z" fill="#F4F8FF" fill-opacity="1.000000" fill-rule="nonzero"/>
	<path id="Vector" d="M61.2425 168.464L89.4216 168.464L89.4216 277.635L61.2425 277.635L61.2425 168.464Z" fill="#E0E0E0" fill-opacity="1.000000" fill-rule="evenodd"/>
	<path id="Vector" d="M82.8581 168.464L224.237 168.464L224.237 273.293L82.8581 273.293L82.8581 168.464Z" fill="#FAFAFA" fill-opacity="1.000000" fill-rule="evenodd"/>
	<path id="Vector" d="M125.334 149.926C125.334 160.102 135.137 168.464 147.128 168.464L157.949 168.464C169.931 168.464 179.734 160.119 179.734 149.926L125.334 149.926Z" fill="#EBEBEB" fill-opacity="1.000000" fill-rule="nonzero"/>
	<path id="Vector" d="M119.059 126.632L139.411 126.632C139.411 126.632 135.875 135.96 135.875 141.455C135.875 146.95 151.359 168.464 129.235 168.464C107.111 168.464 122.595 146.941 122.595 141.455C122.595 135.968 119.059 126.632 119.059 126.632Z" fill="#E0E0E0" fill-opacity="1.000000" fill-rule="nonzero"/>
	<path id="Vector" d="M88.6923 174.849L218.402 174.849L218.402 201.281L88.6923 201.281L88.6923 174.849Z" fill="#EBEBEB" fill-opacity="1.000000" fill-rule="evenodd"/>
	<path id="Vector" d="M90.3799 277.635L82.8581 277.635L82.8581 265.025L98.2747 265.025L90.3799 277.635Z" fill="#FAFAFA" fill-opacity="1.000000" fill-rule="nonzero"/>
	<path id="Vector" d="M149.562 188.061C149.562 188.849 149.795 189.62 150.233 190.275C150.671 190.931 151.294 191.442 152.022 191.743C152.75 192.045 153.552 192.124 154.325 191.97C155.098 191.816 155.808 191.437 156.366 190.879C156.923 190.322 157.303 189.612 157.456 188.839C157.61 188.065 157.531 187.264 157.23 186.536C156.928 185.807 156.417 185.185 155.762 184.747C155.106 184.309 154.336 184.075 153.547 184.075C152.49 184.075 151.477 184.495 150.729 185.243C149.982 185.99 149.562 187.004 149.562 188.061Z" fill="#FAFAFA" fill-opacity="1.000000" fill-rule="nonzero"/>
	<path id="Vector" d="M88.6923 207.667L218.402 207.667L218.402 234.099L88.6923 234.099L88.6923 207.667Z" fill="#EBEBEB" fill-opacity="1.000000" fill-rule="evenodd"/>
	<path id="Vector" d="M149.562 220.879C149.562 221.667 149.795 222.437 150.233 223.093C150.671 223.748 151.294 224.259 152.022 224.561C152.75 224.862 153.552 224.941 154.325 224.788C155.098 224.634 155.808 224.254 156.366 223.697C156.923 223.139 157.303 222.429 157.456 221.656C157.61 220.883 157.531 220.082 157.23 219.353C156.928 218.625 156.417 218.003 155.762 217.565C155.106 217.127 154.336 216.893 153.547 216.893C152.49 216.893 151.477 217.313 150.729 218.06C149.982 218.808 149.562 219.822 149.562 220.879Z" fill="#FAFAFA" fill-opacity="1.000000" fill-rule="nonzero"/>
	<path id="Vector" d="M88.6923 240.476L218.402 240.476L218.402 266.908L88.6923 266.908L88.6923 240.476Z" fill="#EBEBEB" fill-opacity="1.000000" fill-rule="evenodd"/>
	<path id="Vector" d="M157.533 253.696C157.533 255.897 155.749 257.682 153.547 257.682C151.346 257.682 149.562 255.897 149.562 253.696C149.562 251.495 151.346 249.711 153.547 249.711C155.749 249.711 157.533 251.495 157.533 253.696Z" fill="#FAFAFA" fill-opacity="1.000000" fill-rule="evenodd"/>
	<path id="Vector" d="M250.711 14.3651L313.658 14.3651L313.658 59.1734L250.711 59.1734L250.711 14.3651Z" fill="#E0E0E0" fill-opacity="1.000000" fill-rule="evenodd"/>
	<path id="Vector" d="M254.29 14.3651L318.797 14.3651L318.797 59.1734L254.29 59.1734L254.29 14.3651Z" fill="#F5F5F5" fill-opacity="1.000000" fill-rule="evenodd"/>
	<path id="Vector" d="M314.684 18.4779L314.684 55.0606L258.403 55.0606L258.403 18.4779L314.684 18.4779Z" fill="#FFFFFF" fill-opacity="1.000000" fill-rule="evenodd"/>
	<path id="Vector" d="M304.78 29.1288L304.78 44.4013L268.307 44.4013L268.307 29.1288L304.78 29.1288Z" fill="#F5F5F5" fill-opacity="1.000000" fill-rule="evenodd"/>
	<path id="Vector" d="M326.412 36.7693L364.725 36.7693L364.725 76.9476L326.412 76.9476L326.412 36.7693Z" fill="#E0E0E0" fill-opacity="1.000000" fill-rule="evenodd"/>
	<path id="Vector" d="M329.999 36.7693L369.881 36.7693L369.881 76.9476L329.999 76.9476L329.999 36.7693Z" fill="#F5F5F5" fill-opacity="1.000000" fill-rule="evenodd"/>
	<path id="Vector" d="M365.768 40.8821L365.768 72.8347L334.112 72.8347L334.112 40.8821L365.768 40.8821Z" fill="#FFFFFF" fill-opacity="1.000000" fill-rule="evenodd"/>
	<path id="Vector" d="M344.017 56.8584C344.017 55.4475 344.577 54.0942 345.574 53.0957C346.57 52.0973 347.923 51.5352 349.334 51.5329L350.538 51.5329C351.949 51.5352 353.301 52.0973 354.298 53.0957C355.295 54.0942 355.855 55.4475 355.855 56.8584C355.855 58.2685 355.295 59.6209 354.298 60.618C353.3 61.6152 351.948 62.1754 350.538 62.1754L349.376 62.1754C348.674 62.181 347.978 62.0475 347.328 61.7829C346.678 61.5182 346.087 61.1274 345.589 60.6331C345.091 60.1388 344.695 59.5508 344.426 58.9029C344.156 58.2551 344.017 57.5602 344.017 56.8584Z" fill="#F5F5F5" fill-opacity="1.000000" fill-rule="nonzero"/>
	<path id="Vector" d="M424 90.6088L322.834 90.6088L304.44 90.6088L304.44 113.988L286.047 113.988L286.047 137.368L267.654 137.368L267.654 160.747L249.261 160.747L249.261 184.126L230.868 184.126L230.868 207.497L212.475 207.497L212.475 230.876L194.082 230.876L194.082 254.256L175.689 254.256L175.689 277.635L194.082 277.635L424 277.635L424 90.6088Z" fill="#FAFAFA" fill-opacity="1.000000" fill-rule="nonzero"/>
	<path id="Vector" d="M173.798 254.256L278.636 254.256L278.636 261.269L173.798 261.269L173.798 254.256Z" fill="#EBEBEB" fill-opacity="1.000000" fill-rule="evenodd"/>
	<path id="Vector" d="M192.191 230.876L297.029 230.876L297.029 237.889L192.191 237.889L192.191 230.876Z" fill="#EBEBEB" fill-opacity="1.000000" fill-rule="evenodd"/>
	<path id="Vector" d="M210.584 207.497L315.422 207.497L315.422 214.51L210.584 214.51L210.584 207.497Z" fill="#EBEBEB" fill-opacity="1.000000" fill-rule="evenodd"/>
	<path id="Vector" d="M228.977 184.118L333.815 184.118L333.815 191.131L228.977 191.131L228.977 184.118Z" fill="#EBEBEB" fill-opacity="1.000000" fill-rule="evenodd"/>
	<path id="Vector" d="M247.37 160.747L352.208 160.747L352.208 167.76L247.37 167.76L247.37 160.747Z" fill="#EBEBEB" fill-opacity="1.000000" fill-rule="evenodd"/>
	<path id="Vector" d="M265.763 137.368L370.602 137.368L370.602 144.38L265.763 144.38L265.763 137.368Z" fill="#EBEBEB" fill-opacity="1.000000" fill-rule="evenodd"/>
	<path id="Vector" d="M284.156 113.988L388.995 113.988L388.995 121.001L284.156 121.001L284.156 113.988Z" fill="#EBEBEB" fill-opacity="1.000000" fill-rule="evenodd"/>
	<path id="Vector" d="M302.549 90.6088L407.388 90.6088L407.388 97.6217L302.549 97.6217L302.549 90.6088Z" fill="#EBEBEB" fill-opacity="1.000000" fill-rule="evenodd"/>
	<path id="Vector" d="M405.607 90.6088L405.607 113.988L387.214 113.988L387.214 137.368L368.821 137.368L368.821 160.747L350.427 160.747L350.427 184.126L332.034 184.126L332.034 207.497L313.641 207.497L313.641 230.876L295.248 230.876L295.248 254.256L276.855 254.256L276.855 277.635L295.248 277.635L424 277.635L424 113.988L424 90.6088L405.607 90.6088Z" fill="#FFFFFF" fill-opacity="1.000000" fill-rule="nonzero"/>
	<g opacity="0.000000">
		<g opacity="0.000000">
			<path id="Vector" d="M125.25 216.24C130.839 217.832 136.742 217.967 142.398 216.631C148.053 215.295 153.273 212.533 157.558 208.608C166.267 200.705 178.241 197.262 189.46 197.838C209.456 198.797 227.374 209.456 244.029 217.088C251.763 220.65 259.759 224.084 268.536 225.746C289.736 229.791 309.037 219.327 324.674 204.215C356.898 173.102 365.42 121.824 355.668 86.3434C349.274 63.1081 316.567 17.3416 274.031 21.8529C233.675 26.1438 257.979 84.6473 219.81 90.3374C177.639 96.6296 176.147 30.7484 124.478 39.7033C77.8379 47.7933 54.6112 89.1926 69.1799 123.147C76.2946 139.725 89.9135 152.776 97.1638 169.184C104.948 186.797 101.497 209.091 125.25 216.24Z" fill="#2EA3F8" fill-opacity="1.000000" fill-rule="nonzero"/>
		</g>
		<g opacity="0.800000">
			<path id="Vector" d="M125.25 216.24C130.839 217.832 136.742 217.967 142.398 216.631C148.053 215.295 153.273 212.533 157.558 208.608C166.267 200.705 178.241 197.262 189.46 197.838C209.456 198.797 227.374 209.456 244.029 217.088C251.763 220.65 259.759 224.084 268.536 225.746C289.736 229.791 309.037 219.327 324.674 204.215C356.898 173.102 365.42 121.824 355.668 86.3434C349.274 63.1081 316.567 17.3416 274.031 21.8529C233.675 26.1438 257.979 84.6473 219.81 90.3374C177.639 96.6296 176.147 30.7484 124.478 39.7033C77.8379 47.7933 54.6112 89.1926 69.1799 123.147C76.2946 139.725 89.9135 152.776 97.1638 169.184C104.948 186.797 101.497 209.091 125.25 216.24Z" fill="#FFFFFF" fill-opacity="1.000000" fill-rule="nonzero"/>
		</g>
	</g>
	<path id="Vector" d="M376.419 306.332C376.419 311.633 302.806 315.931 212 315.931C121.194 315.931 47.5813 311.633 47.5813 306.332C47.5813 301.03 121.194 296.732 212 296.732C302.806 296.732 376.419 301.03 376.419 306.332Z" fill="#F5F5F5" fill-opacity="1.000000" fill-rule="evenodd"/>
	<path id="Vector" d="M309.647 90.736C310.834 94.7132 316.957 102.159 317.44 107.577C317.924 112.996 307.485 121.663 307.485 121.663C307.485 121.663 299.683 95.5781 304.568 92.5338C309.452 89.4895 309.647 90.736 309.647 90.736Z" fill="#263238" fill-opacity="1.000000" fill-rule="nonzero"/>
	<path id="Vector" d="M288.21 118.915C286.361 120.458 284.546 121.756 282.655 123.087C280.764 124.419 278.814 125.631 276.83 126.768C274.838 127.946 272.786 129.019 270.682 129.981C269.613 130.465 268.553 130.94 267.451 131.355C266.908 131.576 266.357 131.788 265.797 131.974L264.101 132.568C262.651 132.973 261.134 133.083 259.641 132.89C258.392 132.744 257.157 132.506 255.943 132.178C253.682 131.552 251.469 130.764 249.321 129.82C245.15 128 241.127 125.859 237.287 123.418L238.873 120.467C240.874 121.315 242.927 122.163 244.962 122.901C246.997 123.638 249.049 124.419 251.101 125.055C253.102 125.71 255.141 126.243 257.207 126.649C258.155 126.834 259.116 126.95 260.082 126.997C260.801 127.052 261.525 126.978 262.219 126.776C264.153 126.036 266.045 125.186 267.883 124.232C268.825 123.74 269.757 123.24 270.673 122.697C271.589 122.154 272.522 121.629 273.429 121.069C275.252 119.941 277.033 118.745 278.797 117.516C280.561 116.286 282.316 114.972 283.885 113.725L288.21 118.915Z" fill="#E58A7B" fill-opacity="1.000000" fill-rule="nonzero"/>
	<path id="Vector" d="M292.687 109.884C290.584 108.239 281.884 113.624 279.246 115.871L281.171 127.514C281.171 127.514 293.679 122.273 294.426 118.695C295.214 114.955 294.256 111.139 292.687 109.884Z" fill="#2EA3F8" fill-opacity="1.000000" fill-rule="nonzero"/>
	<g opacity="0.200000">
		<path id="Vector" d="M292.687 109.884C290.584 108.239 281.884 113.624 279.246 115.871L281.171 127.514C281.171 127.514 293.679 122.273 294.426 118.695C295.214 114.955 294.256 111.139 292.687 109.884Z" fill="#000000" fill-opacity="1.000000" fill-rule="nonzero"/>
	</g>
	<path id="Vector" d="M321.952 145.118L295.545 150.266C281.901 113.318 284.869 112.106 284.869 112.106C286.788 111.051 288.77 110.117 290.805 109.307L291.161 109.172C292.857 108.553 293.196 108.459 295.452 107.798C299.336 106.873 302.957 106.102 307.442 105.466L308.29 105.347C309.138 105.245 309.91 105.161 310.69 105.084C311.216 105.025 311.742 104.991 312.242 104.957L313.938 104.864C316.838 104.72 318.916 104.762 318.916 104.762C318.11 127.836 319.416 134.459 321.952 145.118Z" fill="#2EA3F8" fill-opacity="1.000000" fill-rule="nonzero"/>
	<g opacity="0.200000">
		<path id="Vector" d="M321.952 145.118L295.545 150.266C281.901 113.318 284.869 112.106 284.869 112.106C286.788 111.051 288.77 110.117 290.805 109.307L291.161 109.172C292.857 108.553 293.196 108.459 295.452 107.798C299.336 106.873 302.957 106.102 307.442 105.466L308.29 105.347C309.138 105.245 309.91 105.161 310.69 105.084C311.216 105.025 311.742 104.991 312.242 104.957L313.938 104.864C316.838 104.72 318.916 104.762 318.916 104.762C318.11 127.836 319.416 134.459 321.952 145.118Z" fill="#000000" fill-opacity="1.000000" fill-rule="nonzero"/>
	</g>
	<path id="Vector" d="M301.269 93.3903C299.573 96.1972 305.721 97.4946 309.359 94.6199C312.268 92.3133 311.581 86.9879 309.088 85.7498C306.594 84.5117 301.269 93.3903 301.269 93.3903Z" fill="#2EA3F8" fill-opacity="1.000000" fill-rule="nonzero"/>
	<g opacity="0.400000">
		<path id="Vector" d="M301.269 93.3903C299.573 96.1972 305.721 97.4946 309.359 94.6199C312.268 92.3133 311.581 86.9879 309.088 85.7498C306.594 84.5117 301.269 93.3903 301.269 93.3903Z" fill="#000000" fill-opacity="1.000000" fill-rule="nonzero"/>
	</g>
	<path id="Vector" d="M326.972 298.047L320.366 298.538L317.949 283.334L324.555 282.842L326.972 298.047Z" fill="#E58A7B" fill-opacity="1.000000" fill-rule="nonzero"/>
	<path id="Vector" d="M373.697 276.796L368.091 280.323L358.11 268.485L363.716 264.949L373.697 276.796Z" fill="#E58A7B" fill-opacity="1.000000" fill-rule="nonzero"/>
	<path id="Vector" d="M317.949 283.334L319.289 291.78L325.802 290.686L324.564 282.85L317.949 283.334Z" fill="#CF6F64" fill-opacity="1.000000" fill-rule="nonzero"/>
	<path id="Vector" d="M363.724 264.958L358.11 268.485L362.249 273.387L367.981 270.003L363.724 264.958Z" fill="#CF6F64" fill-opacity="1.000000" fill-rule="nonzero"/>
	<path id="Vector" d="M295.952 150.266C295.952 150.266 295.859 202.689 300.141 222.43C304.602 242.969 317.72 289.694 317.72 289.694L327.235 288.464C327.235 288.464 319.798 241.265 316.626 220.853C313.175 198.61 315.295 146.501 315.295 146.501L295.952 150.266Z" fill="#2EA3F8" fill-opacity="1.000000" fill-rule="nonzero"/>
	<g opacity="0.700000">
		<path id="Vector" d="M295.952 150.266C295.952 150.266 295.859 202.689 300.141 222.43C304.602 242.969 317.72 289.694 317.72 289.694L327.235 288.464C327.235 288.464 319.798 241.265 316.626 220.853C313.175 198.61 315.295 146.501 315.295 146.501L295.952 150.266Z" fill="#000000" fill-opacity="1.000000" fill-rule="nonzero"/>
	</g>
	<g opacity="0.500000">
		<path id="Vector" d="M314.701 169.736L310.037 165.089C310.215 185.229 311.343 195.176 315.219 206.013C314.608 194.557 314.557 181.006 314.701 169.736Z" fill="#000000" fill-opacity="1.000000" fill-rule="nonzero"/>
	</g>
	<path id="Vector" d="M302.516 148.909C302.516 148.909 316.736 192.233 323.792 217.19C331.237 243.52 359.781 272.641 359.781 272.641L367.973 267.909C367.973 267.909 348.469 240.264 341.295 215.697C326.709 165.826 332.704 155.26 321.943 145.118L302.516 148.909Z" fill="#2EA3F8" fill-opacity="1.000000" fill-rule="nonzero"/>
	<g opacity="0.700000">
		<path id="Vector" d="M302.516 148.909C302.516 148.909 316.736 192.233 323.792 217.19C331.237 243.52 359.781 272.641 359.781 272.641L367.973 267.909C367.973 267.909 348.469 240.264 341.295 215.697C326.709 165.826 332.704 155.26 321.943 145.118L302.516 148.909Z" fill="#000000" fill-opacity="1.000000" fill-rule="nonzero"/>
	</g>
	<path id="Vector" d="M291.339 78.0923C295.121 79.3558 298.555 88.7432 298.7 92.4405C298.844 96.1378 287.743 101.234 287.743 101.234C287.743 101.234 282.85 89.3622 284.216 81.7302C284.809 78.4146 291.339 78.0923 291.339 78.0923Z" fill="#263238" fill-opacity="1.000000" fill-rule="nonzero"/>
	<path id="Vector" d="M239.433 120.781L234.947 115.896L233.48 122.019C233.48 122.019 236.668 124.834 239.246 123.867L239.433 120.781Z" fill="#E58A7B" fill-opacity="1.000000" fill-rule="nonzero"/>
	<path id="Vector" d="M230.402 114.497L227.264 116.99L233.48 122.019L234.947 115.896L230.402 114.497Z" fill="#E58A7B" fill-opacity="1.000000" fill-rule="nonzero"/>
	<path id="Vector" d="M366.336 279.06L371.577 273.777C371.667 273.686 371.787 273.632 371.915 273.622C372.043 273.613 372.169 273.65 372.272 273.726L377.046 277.271C377.164 277.363 377.262 277.48 377.331 277.613C377.401 277.746 377.442 277.893 377.45 278.042C377.459 278.192 377.436 278.342 377.382 278.483C377.329 278.623 377.246 278.75 377.14 278.856C375.274 280.663 374.29 281.443 371.984 283.766C370.568 285.199 368.643 287.43 366.684 289.405C364.725 291.381 362.664 289.541 363.292 288.557C366.149 284.089 365.641 282.418 365.836 280.145C365.865 279.735 366.043 279.349 366.336 279.06Z" fill="#263238" fill-opacity="1.000000" fill-rule="nonzero"/>
	<path id="Vector" d="M319.925 297.589L327.37 297.589C327.501 297.589 327.628 297.634 327.729 297.718C327.83 297.802 327.898 297.918 327.922 298.047L329.092 303.932C329.118 304.077 329.112 304.225 329.074 304.367C329.036 304.51 328.968 304.642 328.873 304.754C328.778 304.867 328.66 304.957 328.526 305.019C328.392 305.08 328.247 305.112 328.1 305.11C325.496 305.068 324.241 304.915 320.968 304.915C318.958 304.915 314.803 305.119 312.022 305.119C309.24 305.119 308.943 302.371 310.088 302.125C315.176 301.006 317.169 299.471 318.84 297.996C319.142 297.737 319.527 297.593 319.925 297.589Z" fill="#263238" fill-opacity="1.000000" fill-rule="nonzero"/>
	<g opacity="0.270000">
		<path id="Vector" d="M319.772 118.135L315.702 120.56L320.4 138.224C319.374 132.873 319.832 126.997 319.772 118.135Z" fill="#2EA3F8" fill-opacity="1.000000" fill-rule="nonzero"/>
	</g>
	<path id="Vector" d="M296.639 90.5579C299.531 92.9747 303.728 96.4939 308.672 92.3811C312.912 88.8365 315.88 79.5339 308.273 79.1947C304.296 79.0166 296.639 90.5579 296.639 90.5579Z" fill="#263238" fill-opacity="1.000000" fill-rule="nonzero"/>
	<path id="Vector" d="M303.626 92.2115C303.626 96.2141 304.245 103.431 307.442 105.483C307.442 105.483 307.154 109.604 299.98 110.995C292.102 112.53 295.452 107.815 295.452 107.815C299.556 105.949 298.844 102.778 297.487 99.9283L303.626 92.2115Z" fill="#E58A7B" fill-opacity="1.000000" fill-rule="nonzero"/>
	<path id="Vector" d="M301.125 95.3576L297.495 99.9283C297.813 100.589 298.074 101.275 298.276 101.98C299.87 101.421 301.778 99.1821 301.617 97.4267C301.582 96.7126 301.415 96.011 301.125 95.3576Z" fill="#CF6F64" fill-opacity="1.000000" fill-rule="nonzero"/>
	<path id="Vector" d="M304.008 83.0192C304.856 89.5403 305.373 92.2794 302.761 96.2226C298.835 102.159 290.644 101.777 287.854 95.646C285.31 90.1255 284.36 80.3819 290.16 76.6084C291.436 75.764 292.906 75.2602 294.431 75.1447C295.956 75.0291 297.486 75.3058 298.874 75.9484C300.262 76.591 301.462 77.5781 302.361 78.8158C303.26 80.0534 303.827 81.5005 304.008 83.0192Z" fill="#E58A7B" fill-opacity="1.000000" fill-rule="nonzero"/>
	<path id="Vector" d="M292.679 71.5967C288.269 74.7258 297.114 75.6501 297.122 80.1869C297.122 82.061 300.201 88.0055 304.576 87.6663L308.816 80.136C313.277 72.928 302.736 64.448 292.679 71.5967Z" fill="#263238" fill-opacity="1.000000" fill-rule="nonzero"/>
	<path id="Vector" d="M292.679 71.5966C284.919 71.1896 281.536 77.3631 282.426 82.909C287.839 81.5594 293.438 81.1152 298.996 81.5946C309.63 82.68 292.679 71.5966 292.679 71.5966Z" fill="#263238" fill-opacity="1.000000" fill-rule="nonzero"/>
	<path id="Vector" d="M306.128 88.6415C306.236 89.9073 305.836 91.164 305.017 92.1352C303.923 93.4157 302.473 92.661 301.964 91.1431C301.532 89.7693 301.583 87.4543 303.058 86.725C303.384 86.5742 303.743 86.507 304.101 86.5294C304.459 86.5518 304.807 86.6631 305.111 86.8533C305.416 87.0435 305.668 87.3065 305.846 87.6187C306.023 87.9309 306.12 88.2824 306.128 88.6415Z" fill="#E58A7B" fill-opacity="1.000000" fill-rule="nonzero"/>
	<path id="Vector" d="M294.587 86.725C294.688 87.2507 294.493 87.7256 294.154 87.7934C293.815 87.8613 293.45 87.4882 293.349 86.9454C293.247 86.4027 293.442 85.9363 293.781 85.8685C294.12 85.8006 294.485 86.1992 294.587 86.725Z" fill="#263238" fill-opacity="1.000000" fill-rule="nonzero"/>
	<path id="Vector" d="M288.659 87.8783C288.761 88.404 288.566 88.8874 288.227 88.9552C287.888 89.0231 287.523 88.6499 287.421 88.1072C287.319 87.5645 287.514 87.0981 287.854 87.0387C288.193 86.9794 288.557 87.344 288.659 87.8783Z" fill="#263238" fill-opacity="1.000000" fill-rule="nonzero"/>
	<path id="Vector" d="M288.015 87.0472L286.683 86.937C286.683 86.937 287.523 87.7935 288.015 87.0472Z" fill="#263238" fill-opacity="1.000000" fill-rule="nonzero"/>
	<path id="Vector" d="M290.406 88.4803C290.168 89.765 289.757 91.0115 289.185 92.1861C289.489 92.3279 289.82 92.4013 290.156 92.4013C290.491 92.4013 290.823 92.3279 291.127 92.1861L290.406 88.4803Z" fill="#DF5753" fill-opacity="1.000000" fill-rule="nonzero"/>
	<path id="Vector" d="M293.34 93.8821C293.304 93.8826 293.268 93.8701 293.24 93.8467C293.212 93.8234 293.194 93.7908 293.188 93.7549C293.184 93.7348 293.184 93.7142 293.189 93.6943C293.193 93.6744 293.202 93.6556 293.214 93.639C293.225 93.6224 293.24 93.6083 293.258 93.5977C293.275 93.587 293.295 93.5799 293.315 93.5768C293.97 93.4628 294.59 93.1961 295.123 92.7983C295.656 92.4006 296.088 91.8829 296.385 91.2872C296.392 91.2683 296.404 91.2511 296.418 91.2366C296.433 91.2221 296.45 91.2105 296.469 91.2027C296.488 91.1948 296.508 91.1907 296.528 91.1907C296.549 91.1906 296.569 91.1946 296.588 91.2024C296.607 91.2102 296.624 91.2217 296.639 91.2361C296.653 91.2505 296.665 91.2677 296.673 91.2866C296.68 91.3055 296.685 91.3258 296.685 91.3463C296.685 91.3667 296.681 91.387 296.673 91.4059C296.362 92.0533 295.9 92.6163 295.326 93.0474C294.752 93.4784 294.082 93.7647 293.374 93.8821L293.34 93.8821Z" fill="#263238" fill-opacity="1.000000" fill-rule="nonzero"/>
	<path id="Vector" d="M295.952 84.4693C295.875 84.4702 295.799 84.4431 295.74 84.393C295.455 84.1218 295.109 83.9221 294.732 83.8101C294.355 83.698 293.956 83.6769 293.569 83.7485C293.484 83.7699 293.393 83.7564 293.318 83.7111C293.242 83.6658 293.188 83.5923 293.166 83.5068C293.145 83.4214 293.158 83.3309 293.204 83.2554C293.249 83.1798 293.323 83.1254 293.408 83.104C293.897 83.0078 294.402 83.0291 294.881 83.1662C295.36 83.3033 295.8 83.5523 296.164 83.8927C296.222 83.9514 296.255 84.0306 296.255 84.1131C296.255 84.1957 296.222 84.2749 296.164 84.3336C296.14 84.37 296.109 84.4009 296.073 84.4243C296.036 84.4477 295.995 84.4631 295.952 84.4693Z" fill="#263238" fill-opacity="1.000000" fill-rule="nonzero"/>
	<path id="Vector" d="M285.377 85.648C285.338 85.6568 285.298 85.6568 285.259 85.648C285.22 85.6323 285.185 85.6089 285.155 85.5794C285.126 85.5499 285.102 85.5147 285.086 85.476C285.071 85.4373 285.063 85.3958 285.063 85.354C285.064 85.3122 285.073 85.2709 285.089 85.2325C285.27 84.7688 285.558 84.355 285.932 84.026C286.305 83.6969 286.752 83.4622 287.235 83.3415C287.275 83.3329 287.317 83.3328 287.358 83.3412C287.399 83.3495 287.438 83.3661 287.472 83.3899C287.506 83.4137 287.535 83.4443 287.557 83.4797C287.579 83.5152 287.593 83.5547 287.599 83.5959C287.608 83.636 287.608 83.6775 287.6 83.7178C287.593 83.7581 287.577 83.7965 287.554 83.8305C287.531 83.8645 287.501 83.8936 287.467 83.9159C287.432 83.9383 287.394 83.9534 287.353 83.9605C286.972 84.0645 286.62 84.2558 286.326 84.5192C286.032 84.7827 285.803 85.1111 285.657 85.4784C285.63 85.5291 285.59 85.5716 285.541 85.6014C285.491 85.6312 285.435 85.6473 285.377 85.648Z" fill="#263238" fill-opacity="1.000000" fill-rule="nonzero"/>
	<path id="Vector" d="M364.369 282.138C364.223 282.134 364.081 282.095 363.954 282.024C363.827 281.954 363.719 281.853 363.639 281.731C363.579 281.659 363.539 281.573 363.522 281.481C363.506 281.388 363.514 281.293 363.546 281.205C363.843 280.408 366.183 279.899 366.446 279.84C366.477 279.835 366.508 279.838 366.537 279.85C366.565 279.862 366.59 279.882 366.607 279.908C366.625 279.933 366.635 279.962 366.635 279.993C366.635 280.023 366.625 280.053 366.607 280.077C366.149 280.832 365.251 282.096 364.411 282.138L364.369 282.138ZM366.141 280.23C365.217 280.468 363.995 280.892 363.843 281.316C363.828 281.354 363.825 281.397 363.834 281.438C363.843 281.478 363.864 281.516 363.894 281.545C363.946 281.632 364.021 281.704 364.11 281.753C364.2 281.802 364.301 281.827 364.403 281.824C364.852 281.799 365.488 281.214 366.141 280.23Z" fill="#2EA3F8" fill-opacity="1.000000" fill-rule="nonzero"/>
	<path id="Vector" d="M365.759 280.23C364.911 280.23 363.851 280.018 363.538 279.56C363.468 279.456 363.436 279.331 363.447 279.206C363.458 279.081 363.51 278.964 363.597 278.873C363.671 278.779 363.765 278.701 363.872 278.646C363.979 278.59 364.096 278.558 364.216 278.551L364.284 278.551C365.234 278.551 366.54 279.832 366.59 279.882C366.611 279.902 366.626 279.926 366.633 279.953C366.641 279.98 366.64 280.008 366.633 280.035C366.625 280.061 366.611 280.085 366.592 280.104C366.573 280.124 366.549 280.138 366.523 280.145C366.273 280.206 366.016 280.234 365.759 280.23ZM364.284 278.865L364.233 278.865C364.157 278.867 364.082 278.887 364.015 278.922C363.947 278.957 363.889 279.007 363.843 279.068C363.724 279.229 363.758 279.323 363.801 279.382C364.055 279.772 365.352 279.993 366.149 279.899C365.641 279.381 364.993 279.022 364.284 278.865Z" fill="#2EA3F8" fill-opacity="1.000000" fill-rule="nonzero"/>
	<path id="Vector" d="M317.491 298.75C316.921 298.801 316.35 298.658 315.872 298.343C315.758 298.255 315.669 298.14 315.613 298.008C315.557 297.876 315.535 297.731 315.549 297.589C315.549 297.504 315.57 297.42 315.612 297.345C315.654 297.271 315.714 297.209 315.787 297.165C316.567 296.707 319.297 298.064 319.603 298.216C319.632 298.231 319.655 298.255 319.67 298.284C319.685 298.312 319.691 298.345 319.688 298.377C319.684 298.409 319.67 298.439 319.649 298.463C319.628 298.488 319.6 298.505 319.569 298.513C318.885 298.656 318.19 298.736 317.491 298.75ZM316.236 297.377C316.137 297.37 316.037 297.391 315.948 297.436C315.919 297.451 315.896 297.475 315.881 297.503C315.865 297.532 315.859 297.565 315.863 297.597C315.855 297.693 315.87 297.789 315.906 297.878C315.943 297.966 316.001 298.045 316.075 298.106C316.499 298.471 317.593 298.53 319.035 298.293C318.159 297.833 317.214 297.524 316.236 297.377Z" fill="#2EA3F8" fill-opacity="1.000000" fill-rule="nonzero"/>
	<path id="Vector" d="M319.535 298.496L319.476 298.496C318.628 298.131 316.991 296.69 317.11 295.952C317.11 295.782 317.262 295.562 317.686 295.52L317.813 295.52C319.289 295.52 319.671 298.216 319.688 298.335C319.691 298.363 319.688 298.392 319.677 298.419C319.667 298.446 319.65 298.469 319.628 298.488C319.598 298.499 319.566 298.502 319.535 298.496ZM317.839 295.816L317.746 295.816C317.474 295.816 317.457 295.944 317.457 295.977C317.389 296.427 318.509 297.555 319.357 298.055C319.187 297.394 318.755 295.833 317.805 295.833L317.839 295.816Z" fill="#2EA3F8" fill-opacity="1.000000" fill-rule="nonzero"/>
	<path id="Vector" d="M293.942 85.894L292.611 85.7752C292.611 85.7752 293.45 86.6402 293.942 85.894Z" fill="#263238" fill-opacity="1.000000" fill-rule="nonzero"/>
	<path id="Vector" d="M299.768 116.634C285.581 119.797 289.965 111.215 290.813 109.324L291.169 109.189C292.865 108.569 293.205 108.476 295.46 107.815C299.396 106.752 303.403 105.973 307.451 105.483L308.299 105.364C309.147 105.254 309.919 105.169 310.699 105.101C311.225 105.042 311.75 105.008 312.251 104.974L313.947 104.872C314.235 106.195 314.939 113.267 299.768 116.634Z" fill="#E58A7B" fill-opacity="1.000000" fill-rule="nonzero"/>
	<path id="Vector" d="M322.036 143.49L323.69 145.627C323.817 145.788 323.639 146.017 323.334 146.077L295.638 151.47C295.401 151.521 295.18 151.47 295.138 151.292L294.434 148.977C294.434 148.816 294.57 148.637 294.824 148.587L321.57 143.38C321.651 143.356 321.736 143.354 321.818 143.373C321.9 143.392 321.975 143.433 322.036 143.49Z" fill="#26395A" fill-opacity="1.000000" fill-rule="nonzero"/>
	<path id="Vector" d="M319.026 147.179L319.747 147.043C319.891 147.043 319.984 146.924 319.959 146.831L319.026 143.829C319.026 143.736 318.857 143.694 318.712 143.719L318 143.855C317.856 143.855 317.763 143.982 317.788 144.067L318.721 147.077C318.746 147.162 318.891 147.213 319.026 147.179Z" fill="#2EA3F8" fill-opacity="1.000000" fill-rule="nonzero"/>
	<path id="Vector" d="M302.804 157.185L297.283 155.133L298.131 160.382C298.131 160.382 302.134 161.824 304.178 159.975L302.804 157.185Z" fill="#E58A7B" fill-opacity="1.000000" fill-rule="nonzero"/>
	<path id="Vector" d="M292.026 156.524L290.711 159.967L298.131 160.382L297.283 155.133L292.026 156.524Z" fill="#E58A7B" fill-opacity="1.000000" fill-rule="nonzero"/>
	<path id="Vector" d="M297.699 151.334L298.42 151.198C298.555 151.198 298.657 151.08 298.623 150.986L297.69 147.985C297.69 147.891 297.529 147.849 297.385 147.874L296.664 148.01C296.52 148.01 296.427 148.137 296.461 148.222L297.394 151.232C297.419 151.317 297.555 151.368 297.699 151.334Z" fill="#2EA3F8" fill-opacity="1.000000" fill-rule="nonzero"/>
	<path id="Vector" d="M308.367 149.248L309.079 149.112C309.223 149.112 309.317 148.994 309.291 148.9L308.358 145.898C308.358 145.805 308.189 145.763 308.045 145.788L307.332 145.924C307.188 145.924 307.095 146.051 307.12 146.136L308.053 149.146C308.087 149.195 308.136 149.232 308.193 149.25C308.249 149.269 308.311 149.268 308.367 149.248Z" fill="#2EA3F8" fill-opacity="1.000000" fill-rule="nonzero"/>
	<path id="Vector" d="M305.348 102.116C305.95 101.887 306.705 104.007 306.518 104.279C306.086 104.898 298.165 107.06 297.809 105.847C297.787 105.19 297.888 104.534 298.106 103.914C298.335 103.507 300.09 104.253 305.348 102.116Z" fill="#2EA3F8" fill-opacity="1.000000" fill-rule="nonzero"/>
	<path id="Vector" d="M304.008 102.167C304.313 101.463 305.187 100.335 305.95 100.98C306.713 101.624 307.035 103.015 306.535 103.244C306.035 103.473 303.482 103.346 304.008 102.167Z" fill="#2EA3F8" fill-opacity="1.000000" fill-rule="nonzero"/>
	<path id="Vector" d="M305.628 102.532C306.153 101.972 307.324 101.2 307.858 102.065C308.392 102.93 308.197 104.346 307.654 104.389C307.112 104.431 304.737 103.456 305.628 102.532Z" fill="#2EA3F8" fill-opacity="1.000000" fill-rule="nonzero"/>
	<path id="Vector" d="M305.916 102.405C305.873 101.954 305.962 101.5 306.171 101.098C306.38 100.697 306.701 100.364 307.095 100.14C308.062 99.5128 309.003 99.1058 309.376 98.4444C309.537 99.0645 309.568 99.711 309.469 100.344C309.274 101.251 306.264 101.947 306.467 102.735L305.916 102.405Z" fill="#2EA3F8" fill-opacity="1.000000" fill-rule="nonzero"/>
	<path id="Vector" d="M305.789 102.362C305.508 102.006 305.336 101.577 305.294 101.125C305.252 100.674 305.341 100.22 305.551 99.8181C306.009 98.7666 306.586 97.9186 306.552 97.1723C307.023 97.6062 307.401 98.1313 307.663 98.7157C307.985 99.5637 305.84 101.794 306.442 102.354L305.789 102.362Z" fill="#2EA3F8" fill-opacity="1.000000" fill-rule="nonzero"/>
	<path id="Vector" d="M364.767 268.019C364.75 268.018 364.733 268.013 364.718 268.004C364.703 267.996 364.691 267.983 364.682 267.968C364.487 267.697 345.102 240.035 337.996 215.731C333.358 200.141 329.794 184.252 327.328 168.175C325.861 159.119 324.971 153.649 322.053 149.163C322.034 149.143 322.023 149.115 322.023 149.087C322.023 149.058 322.034 149.031 322.053 149.011C322.073 148.993 322.099 148.984 322.126 148.984C322.152 148.984 322.178 148.993 322.198 149.011C325.149 153.539 326.039 159.025 327.506 168.108C329.984 184.161 333.553 200.028 338.191 215.596C345.289 239.865 364.657 267.493 364.852 267.773C364.868 267.794 364.876 267.819 364.876 267.845C364.876 267.871 364.868 267.896 364.852 267.917C364.851 267.941 364.842 267.964 364.827 267.982C364.811 268.001 364.79 268.013 364.767 268.019Z" fill="#2EA3F8" fill-opacity="1.000000" fill-rule="nonzero"/>
	<g opacity="0.400000">
		<path id="Vector" d="M364.767 268.019C364.75 268.018 364.733 268.013 364.718 268.004C364.703 267.996 364.691 267.983 364.682 267.968C364.487 267.697 345.102 240.035 337.996 215.731C333.358 200.141 329.794 184.252 327.328 168.175C325.861 159.119 324.971 153.649 322.053 149.163C322.034 149.143 322.023 149.115 322.023 149.087C322.023 149.058 322.034 149.031 322.053 149.011C322.073 148.993 322.099 148.984 322.126 148.984C322.152 148.984 322.178 148.993 322.198 149.011C325.149 153.539 326.039 159.025 327.506 168.108C329.984 184.161 333.553 200.028 338.191 215.596C345.289 239.865 364.657 267.493 364.852 267.773C364.868 267.794 364.876 267.819 364.876 267.845C364.876 267.871 364.868 267.896 364.852 267.917C364.851 267.941 364.842 267.964 364.827 267.982C364.811 268.001 364.79 268.013 364.767 268.019Z" fill="#000000" fill-opacity="1.000000" fill-rule="nonzero"/>
	</g>
	<path id="Vector" d="M328.939 288.43L315.982 290.109L315.134 286.497L328.625 283.639L328.939 288.43Z" fill="#2EA3F8" fill-opacity="1.000000" fill-rule="nonzero"/>
	<path id="Vector" d="M368.66 267.62L359.103 273.141L355.88 270.385L366.336 263.313L368.66 267.62Z" fill="#2EA3F8" fill-opacity="1.000000" fill-rule="nonzero"/>
	<path id="Vector" d="M323.809 113.742C324.267 116.1 324.53 118.321 324.784 120.62C325.038 122.918 325.132 125.19 325.2 127.488C325.267 129.804 325.216 132.123 325.047 134.433C324.954 135.595 324.852 136.757 324.691 137.927C324.623 138.504 324.547 139.089 324.436 139.674L324.123 141.472C323.775 142.937 323.138 144.318 322.249 145.534C321.519 146.556 320.714 147.523 319.84 148.425C318.204 150.106 316.447 151.665 314.583 153.089C310.977 155.866 307.16 158.358 303.169 160.543L301.354 157.728C303.05 156.38 304.746 154.989 306.442 153.573C308.138 152.157 309.749 150.724 311.301 149.231C312.834 147.795 314.281 146.268 315.634 144.66C316.255 143.916 316.822 143.128 317.33 142.303C317.731 141.701 318.018 141.032 318.178 140.327C318.454 138.268 318.615 136.196 318.661 134.12C318.661 133.06 318.661 132 318.661 130.94C318.661 129.88 318.619 128.803 318.568 127.734C318.466 125.597 318.271 123.494 318.042 121.323C317.813 119.152 317.517 117.007 317.194 114.997L323.809 113.742Z" fill="#E58A7B" fill-opacity="1.000000" fill-rule="nonzero"/>
	<path id="Vector" d="M322.783 106.534C326.404 109.468 325.539 118.186 325.539 118.186L313.328 122.205C313.328 122.205 313.887 112.156 314.498 108.544C315.21 104.245 319.213 103.643 322.783 106.534Z" fill="#2EA3F8" fill-opacity="1.000000" fill-rule="nonzero"/>
	<g opacity="0.200000">
		<path id="Vector" d="M322.783 106.534C326.404 109.468 325.539 118.186 325.539 118.186L313.328 122.205C313.328 122.205 313.887 112.156 314.498 108.544C315.21 104.245 319.213 103.643 322.783 106.534Z" fill="#000000" fill-opacity="1.000000" fill-rule="nonzero"/>
	</g>
	<path id="Vector" d="M161.468 142.913C160.994 140.857 159.837 139.023 158.186 137.709C156.535 136.395 154.487 135.68 152.377 135.68L84.5372 135.68C82.0632 135.68 79.6906 136.663 77.9413 138.412C76.1919 140.161 75.2092 142.534 75.2092 145.008L75.2092 295.799C75.2092 298.273 76.1919 300.646 77.9413 302.395C79.6906 304.145 82.0632 305.127 84.5372 305.127L299.929 305.127C302.403 305.127 304.776 304.145 306.525 302.395C308.274 300.646 309.257 298.273 309.257 295.799L309.257 169.134C309.257 166.66 308.274 164.287 306.525 162.538C304.776 160.788 302.403 159.806 299.929 159.806L182.693 159.806C177.766 159.806 172.984 158.136 169.129 155.068C165.274 152 162.573 147.715 161.468 142.913Z" fill="#0560FA" fill-opacity="1.000000" fill-rule="nonzero"/>
	<g opacity="0.600000">
		<path id="Vector" d="M161.468 142.913C160.994 140.857 159.837 139.023 158.186 137.709C156.535 136.395 154.487 135.68 152.377 135.68L84.5372 135.68C82.0632 135.68 79.6906 136.663 77.9413 138.412C76.1919 140.161 75.2092 142.534 75.2092 145.008L75.2092 295.799C75.2092 298.273 76.1919 300.646 77.9413 302.395C79.6906 304.145 82.0632 305.127 84.5372 305.127L299.929 305.127C302.403 305.127 304.776 304.145 306.525 302.395C308.274 300.646 309.257 298.273 309.257 295.799L309.257 169.134C309.257 166.66 308.274 164.287 306.525 162.538C304.776 160.788 302.403 159.806 299.929 159.806L182.693 159.806C177.766 159.806 172.984 158.136 169.129 155.068C165.274 152 162.573 147.715 161.468 142.913Z" fill="#000000" fill-opacity="1.000000" fill-rule="nonzero"/>
	</g>
	<g opacity="0.220000">
		<path id="Vector" d="M137.52 95.9512L143.566 115.532C144.338 118.024 146.068 120.107 148.375 121.325C150.682 122.543 153.378 122.796 155.871 122.027L175.443 115.981L137.52 95.9512Z" fill="#0560FA" fill-opacity="1.000000" fill-rule="nonzero"/>
	</g>
	<path id="Vector" d="M137.52 95.9512L67.5602 117.567C66.3252 117.946 65.1771 118.565 64.1816 119.389C63.1861 120.212 62.3628 121.224 61.7587 122.366C61.1546 123.508 60.7816 124.758 60.661 126.044C60.5405 127.331 60.6747 128.628 61.056 129.863L100.997 259.166C101.378 260.4 101.999 261.548 102.823 262.542C103.648 263.537 104.661 264.359 105.803 264.963C106.946 265.566 108.196 265.938 109.483 266.058C110.769 266.178 112.067 266.043 113.301 265.661L202.842 238C204.076 237.619 205.223 237 206.218 236.176C207.212 235.352 208.035 234.34 208.638 233.198C209.241 232.056 209.613 230.806 209.733 229.52C209.853 228.234 209.719 226.938 209.337 225.704L175.417 115.981L137.52 95.9512Z" fill="#0560FA" fill-opacity="1.000000" fill-rule="nonzero"/>
	<g opacity="0.800000">
		<path id="Vector" d="M137.52 95.9512L67.5602 117.567C66.3252 117.946 65.1771 118.565 64.1816 119.389C63.1861 120.212 62.3628 121.224 61.7587 122.366C61.1546 123.508 60.7816 124.758 60.661 126.044C60.5405 127.331 60.6747 128.628 61.056 129.863L100.997 259.166C101.378 260.4 101.999 261.548 102.823 262.542C103.648 263.537 104.661 264.359 105.803 264.963C106.946 265.566 108.196 265.938 109.483 266.058C110.769 266.178 112.067 266.043 113.301 265.661L202.842 238C204.076 237.619 205.223 237 206.218 236.176C207.212 235.352 208.035 234.34 208.638 233.198C209.241 232.056 209.613 230.806 209.733 229.52C209.853 228.234 209.719 226.938 209.337 225.704L175.417 115.981L137.52 95.9512Z" fill="#FFFFFF" fill-opacity="1.000000" fill-rule="nonzero"/>
	</g>
	<g opacity="0.280000">
		<g opacity="0.280000">
			<path id="Vector" d="M175.163 232.352L116.956 250.33C115.868 250.664 114.691 250.554 113.684 250.023C112.676 249.492 111.92 248.584 111.58 247.497C111.249 246.409 111.361 245.233 111.893 244.228C112.426 243.222 113.334 242.468 114.421 242.129L172.627 224.143C173.717 223.809 174.895 223.921 175.902 224.453C176.91 224.986 177.666 225.896 178.004 226.984C178.335 228.073 178.222 229.248 177.69 230.254C177.158 231.26 176.249 232.014 175.163 232.352Z" fill="#0560FA" fill-opacity="1.000000" fill-rule="nonzero"/>
		</g>
	</g>
	<g opacity="0.280000">
		<g opacity="0.280000">
			<path id="Vector" d="M112.521 126.844L81.7388 136.35C80.6502 136.682 79.4746 136.571 78.4678 136.04C77.4609 135.51 76.7042 134.603 76.3625 133.518C76.0308 132.428 76.1433 131.251 76.6754 130.244C77.2076 129.237 78.1162 128.481 79.2033 128.141L109.986 118.635C111.074 118.298 112.252 118.408 113.26 118.939C114.268 119.47 115.024 120.379 115.362 121.467C115.694 122.557 115.581 123.734 115.049 124.741C114.517 125.748 113.608 126.504 112.521 126.844Z" fill="#0560FA" fill-opacity="1.000000" fill-rule="nonzero"/>
		</g>
	</g>
	<g opacity="0.280000">
		<g opacity="0.280000">
			<path id="Vector" d="M137.639 136.927L86.7589 152.64C85.6726 152.966 84.5015 152.851 83.4997 152.319C82.4979 151.787 81.7463 150.882 81.408 149.799C81.0739 148.712 81.1844 147.536 81.7153 146.53C82.2462 145.524 83.1541 144.769 84.2403 144.431L135.12 128.718C136.209 128.384 137.386 128.494 138.393 129.025C139.4 129.555 140.157 130.463 140.497 131.55C140.825 132.642 140.709 133.82 140.174 134.826C139.639 135.833 138.728 136.588 137.639 136.927Z" fill="#0560FA" fill-opacity="1.000000" fill-rule="nonzero"/>
		</g>
	</g>
	<g opacity="0.280000">
		<g opacity="0.280000">
			<path id="Vector" d="M166.047 145.992L91.796 168.888C90.7086 169.222 89.5331 169.111 88.527 168.58C87.5209 168.05 86.7662 167.142 86.4282 166.055C86.0962 164.967 86.2075 163.791 86.7379 162.784C87.2684 161.777 88.175 161.021 89.2605 160.679L163.511 137.783C164.599 137.451 165.773 137.563 166.779 138.093C167.784 138.624 168.539 139.53 168.879 140.615C169.214 141.704 169.103 142.881 168.573 143.888C168.042 144.895 167.134 145.652 166.047 145.992Z" fill="#0560FA" fill-opacity="1.000000" fill-rule="nonzero"/>
		</g>
	</g>
	<g opacity="0.280000">
		<g opacity="0.280000">
			<path id="Vector" d="M171.076 162.273L127.912 175.612C126.824 175.944 125.648 175.831 124.643 175.299C123.637 174.766 122.883 173.858 122.545 172.771C122.213 171.684 122.324 170.51 122.855 169.504C123.385 168.499 124.292 167.744 125.377 167.404L168.54 154.065C169.63 153.735 170.805 153.849 171.812 154.381C172.818 154.912 173.574 155.82 173.916 156.905C174.248 157.994 174.135 159.169 173.603 160.175C173.071 161.181 172.162 161.935 171.076 162.273Z" fill="#0560FA" fill-opacity="1.000000" fill-rule="nonzero"/>
		</g>
	</g>
	<g opacity="0.280000">
		<g opacity="0.280000">
			<path id="Vector" d="M108.12 181.726L96.8331 185.212C95.7446 185.546 94.568 185.436 93.5605 184.905C92.553 184.374 91.7967 183.466 91.4568 182.379C91.1228 181.29 91.2343 180.112 91.7667 179.104C92.2992 178.097 93.2092 177.341 94.2976 177.003L105.585 173.518C106.673 173.186 107.849 173.297 108.856 173.827C109.862 174.358 110.619 175.265 110.961 176.35C111.29 177.44 111.177 178.615 110.645 179.622C110.113 180.628 109.206 181.384 108.12 181.726Z" fill="#0560FA" fill-opacity="1.000000" fill-rule="nonzero"/>
		</g>
	</g>
	<g opacity="0.280000">
		<g opacity="0.280000">
			<path id="Vector" d="M176.113 178.563L101.862 201.502C100.773 201.833 99.5978 201.72 98.5921 201.188C97.5864 200.656 96.8322 199.747 96.494 198.661C96.1599 197.574 96.2704 196.398 96.8013 195.392C97.3321 194.386 98.2401 193.631 99.3263 193.293L173.577 170.355C174.665 170.023 175.839 170.135 176.845 170.665C177.85 171.196 178.605 172.102 178.945 173.187C179.279 174.276 179.169 175.452 178.638 176.46C178.108 177.467 177.2 178.224 176.113 178.563Z" fill="#0560FA" fill-opacity="1.000000" fill-rule="nonzero"/>
		</g>
	</g>
	<g opacity="0.280000">
		<g opacity="0.280000">
			<path id="Vector" d="M152.487 203.698L106.89 217.783C105.803 218.115 104.629 218.004 103.623 217.473C102.618 216.942 101.863 216.036 101.523 214.951C101.191 213.863 101.302 212.687 101.832 211.68C102.363 210.673 103.269 209.916 104.355 209.575L149.952 195.489C151.042 195.158 152.218 195.27 153.225 195.802C154.232 196.335 154.988 197.243 155.328 198.33C155.662 199.419 155.55 200.595 155.018 201.602C154.485 202.608 153.575 203.362 152.487 203.698Z" fill="#0560FA" fill-opacity="1.000000" fill-rule="nonzero"/>
		</g>
	</g>
	<g opacity="0.280000">
		<g opacity="0.280000">
			<path id="Vector" d="M181.141 194.853L168.973 198.61C167.883 198.942 166.706 198.829 165.699 198.297C164.692 197.765 163.936 196.856 163.596 195.769C163.265 194.681 163.378 193.505 163.91 192.5C164.442 191.494 165.351 190.74 166.437 190.401L178.606 186.645C179.693 186.311 180.869 186.421 181.875 186.952C182.881 187.483 183.636 188.391 183.974 189.477C184.308 190.566 184.198 191.742 183.667 192.75C183.136 193.757 182.228 194.514 181.141 194.853Z" fill="#0560FA" fill-opacity="1.000000" fill-rule="nonzero"/>
		</g>
	</g>
	<g opacity="0.280000">
		<g opacity="0.280000">
			<path id="Vector" d="M186.17 211.152L111.936 234.048C110.846 234.382 109.669 234.271 108.661 233.738C107.653 233.206 106.898 232.296 106.56 231.207C106.226 230.119 106.338 228.942 106.87 227.936C107.403 226.93 108.313 226.176 109.401 225.839L183.643 202.901C184.733 202.572 185.908 202.685 186.915 203.217C187.921 203.749 188.677 204.656 189.019 205.742C189.19 206.284 189.251 206.855 189.2 207.421C189.149 207.987 188.986 208.537 188.721 209.04C188.456 209.543 188.094 209.989 187.657 210.351C187.219 210.713 186.713 210.986 186.17 211.152Z" fill="#0560FA" fill-opacity="1.000000" fill-rule="nonzero"/>
		</g>
	</g>
	<path id="Vector" d="M187.764 47.3269L209.965 96.7992C210.541 98.0906 210.583 99.5577 210.081 100.88C209.579 102.202 208.574 103.271 207.285 103.855L113.106 146.127C111.815 146.706 110.347 146.749 109.025 146.246C107.702 145.744 106.632 144.738 106.051 143.448L83.8418 93.9754C83.2605 92.6833 83.2162 91.2132 83.7188 89.8885C84.2213 88.5638 85.2295 87.4929 86.5215 86.9115L180.7 44.6387C181.994 44.0626 183.463 44.0219 184.787 44.5256C186.11 45.0293 187.181 46.0364 187.764 47.3269Z" fill="#0560FA" fill-opacity="1.000000" fill-rule="nonzero"/>
	<g opacity="0.300000">
		<path id="Vector" d="M187.764 47.3269L209.965 96.7992C210.541 98.0906 210.583 99.5577 210.081 100.88C209.579 102.202 208.574 103.271 207.285 103.855L113.106 146.127C111.815 146.706 110.347 146.749 109.025 146.246C107.702 145.744 106.632 144.738 106.051 143.448L83.8418 93.9754C83.2605 92.6833 83.2162 91.2132 83.7188 89.8885C84.2213 88.5638 85.2295 87.4929 86.5215 86.9115L180.7 44.6387C181.994 44.0626 183.463 44.0219 184.787 44.5256C186.11 45.0293 187.181 46.0364 187.764 47.3269Z" fill="#000000" fill-opacity="1.000000" fill-rule="nonzero"/>
	</g>
	<path id="Vector" d="M169.912 46.2324L172.921 44.8823L173.268 45.656L170.259 47.0061L169.912 46.2324Z" fill="#0560FA" fill-opacity="1.000000" fill-rule="evenodd"/>
	<path id="Vector" d="M156.311 52.3292L165.696 48.1192L166.043 48.8929L156.658 53.1029L156.311 52.3292Z" fill="#0560FA" fill-opacity="1.000000" fill-rule="evenodd"/>
	<path id="Vector" d="M82.9846 99.3086L83.7582 98.9612L86.3286 104.686L85.555 105.033L82.9846 99.3086Z" fill="#0560FA" fill-opacity="1.000000" fill-rule="evenodd"/>
	<g opacity="0.600000">
		<path id="Vector" d="M184.61 44.4606L160.323 92.0334C158.069 96.4428 154.379 99.9512 149.861 101.979C145.343 104.006 140.269 104.432 135.477 103.185L83.7909 89.7099C84.3212 88.4698 85.2948 87.472 86.5215 86.9115L180.7 44.6387C181.934 44.087 183.331 44.0234 184.61 44.4606Z" fill="#0560FA" fill-opacity="1.000000" fill-rule="nonzero"/>
	</g>
	<path id="Vector" d="M217.995 105.347L144.915 109.858C143.624 109.935 142.36 110.266 141.197 110.831C140.034 111.397 138.994 112.186 138.136 113.154C137.278 114.122 136.62 115.25 136.198 116.473C135.777 117.695 135.601 118.989 135.68 120.28L144.016 255.35C144.094 256.642 144.426 257.905 144.993 259.069C145.56 260.232 146.351 261.272 147.321 262.129C148.29 262.986 149.42 263.644 150.644 264.064C151.868 264.483 153.163 264.658 154.455 264.576L247.989 258.801C249.279 258.723 250.54 258.392 251.702 257.826C252.863 257.259 253.901 256.47 254.757 255.501C255.612 254.533 256.268 253.406 256.687 252.184C257.106 250.961 257.28 249.669 257.198 248.379L250.16 133.755L217.995 105.347Z" fill="#0560FA" fill-opacity="1.000000" fill-rule="nonzero"/>
	<g opacity="0.800000">
		<path id="Vector" d="M217.995 105.347L144.915 109.858C143.624 109.935 142.36 110.266 141.197 110.831C140.034 111.397 138.994 112.186 138.136 113.154C137.278 114.122 136.62 115.25 136.198 116.473C135.777 117.695 135.601 118.989 135.68 120.28L144.016 255.35C144.094 256.642 144.426 257.905 144.993 259.069C145.56 260.232 146.351 261.272 147.321 262.129C148.29 262.986 149.42 263.644 150.644 264.064C151.868 264.483 153.163 264.658 154.455 264.576L247.989 258.801C249.279 258.723 250.54 258.392 251.702 257.826C252.863 257.259 253.901 256.47 254.757 255.501C255.612 254.533 256.268 253.406 256.687 252.184C257.106 250.961 257.28 249.669 257.198 248.379L250.16 133.755L217.995 105.347Z" fill="#FFFFFF" fill-opacity="1.000000" fill-rule="nonzero"/>
	</g>
	<g opacity="0.220000">
		<g opacity="0.220000">
			<path id="Vector" d="M222.413 246.768L161.603 250.525C160.467 250.59 159.352 250.203 158.5 249.448C157.649 248.693 157.13 247.632 157.058 246.497C156.993 245.361 157.379 244.246 158.131 243.393C158.884 242.54 159.943 242.019 161.078 241.943L221.888 238.195C223.024 238.127 224.14 238.512 224.994 239.265C225.847 240.018 226.367 241.079 226.441 242.214C226.509 243.352 226.123 244.469 225.368 245.323C224.613 246.176 223.551 246.696 222.413 246.768Z" fill="#0560FA" fill-opacity="1.000000" fill-rule="nonzero"/>
		</g>
	</g>
	<g opacity="0.220000">
		<g opacity="0.220000">
			<path id="Vector" d="M186.424 129.473L154.26 131.44C153.124 131.505 152.009 131.119 151.156 130.367C150.303 129.614 149.782 128.555 149.706 127.42C149.641 126.284 150.028 125.167 150.782 124.314C151.537 123.461 152.598 122.941 153.734 122.867L185.899 120.882C187.034 120.815 188.149 121.2 189.001 121.954C189.853 122.707 190.372 123.767 190.444 124.902C190.516 126.041 190.133 127.162 189.38 128.019C188.626 128.876 187.563 129.399 186.424 129.473Z" fill="#0560FA" fill-opacity="1.000000" fill-rule="nonzero"/>
		</g>
	</g>
	<g opacity="0.220000">
		<g opacity="0.220000">
			<path id="Vector" d="M208.455 145.195L155.311 148.468C154.175 148.538 153.057 148.153 152.203 147.4C151.349 146.646 150.829 145.585 150.757 144.448C150.69 143.311 151.076 142.193 151.831 141.34C152.586 140.486 153.648 139.967 154.785 139.895L207.921 136.621C209.058 136.552 210.176 136.936 211.029 137.689C211.883 138.443 212.403 139.504 212.475 140.641C212.542 141.777 212.157 142.893 211.404 143.747C210.651 144.6 209.591 145.12 208.455 145.195Z" fill="#0560FA" fill-opacity="1.000000" fill-rule="nonzero"/>
		</g>
	</g>
	<g opacity="0.220000">
		<g opacity="0.220000">
			<path id="Vector" d="M233.921 160.704L156.363 165.487C155.223 165.557 154.102 165.172 153.245 164.417C152.389 163.662 151.866 162.599 151.792 161.459C151.725 160.324 152.11 159.208 152.863 158.357C153.617 157.505 154.677 156.986 155.812 156.914L233.378 152.123C234.514 152.058 235.63 152.445 236.481 153.199C237.333 153.954 237.851 155.015 237.923 156.151C237.991 157.284 237.608 158.398 236.859 159.251C236.109 160.104 235.053 160.626 233.921 160.704Z" fill="#0560FA" fill-opacity="1.000000" fill-rule="nonzero"/>
		</g>
	</g>
	<g opacity="0.220000">
		<g opacity="0.220000">
			<path id="Vector" d="M234.972 177.715L189.884 180.497C188.748 180.564 187.632 180.179 186.778 179.426C185.925 178.673 185.405 177.613 185.33 176.477C185.261 175.341 185.645 174.223 186.398 173.369C187.152 172.515 188.214 171.996 189.35 171.924L234.438 169.142C235.575 169.072 236.693 169.457 237.546 170.21C238.4 170.964 238.92 172.025 238.992 173.162C239.059 174.298 238.674 175.414 237.921 176.267C237.168 177.121 236.108 177.641 234.972 177.715Z" fill="#0560FA" fill-opacity="1.000000" fill-rule="nonzero"/>
		</g>
	</g>
	<g opacity="0.220000">
		<g opacity="0.220000">
			<path id="Vector" d="M169.202 181.769L157.406 182.498C156.271 182.565 155.155 182.18 154.303 181.427C153.451 180.674 152.933 179.613 152.861 178.479C152.793 177.342 153.178 176.226 153.931 175.373C154.684 174.52 155.744 173.999 156.88 173.925L168.676 173.195C169.813 173.13 170.929 173.517 171.782 174.272C172.635 175.026 173.155 176.087 173.23 177.224C173.295 178.36 172.907 179.475 172.153 180.327C171.398 181.178 170.337 181.697 169.202 181.769Z" fill="#0560FA" fill-opacity="1.000000" fill-rule="nonzero"/>
		</g>
	</g>
	<g opacity="0.220000">
		<g opacity="0.220000">
			<path id="Vector" d="M236.024 194.726L158.457 199.509C157.321 199.576 156.205 199.191 155.352 198.438C154.498 197.685 153.978 196.625 153.904 195.489C153.839 194.353 154.225 193.236 154.98 192.383C155.734 191.53 156.795 191.01 157.932 190.936L235.49 186.153C236.627 186.086 237.745 186.472 238.598 187.227C239.452 187.982 239.971 189.044 240.043 190.181C240.111 191.316 239.726 192.432 238.972 193.284C238.219 194.135 237.159 194.654 236.024 194.726Z" fill="#0560FA" fill-opacity="1.000000" fill-rule="nonzero"/>
		</g>
	</g>
	<g opacity="0.220000">
		<g opacity="0.220000">
			<path id="Vector" d="M207.141 213.586L159.509 216.528C158.372 216.593 157.255 216.207 156.402 215.452C155.549 214.698 155.029 213.637 154.955 212.5C154.89 211.364 155.277 210.249 156.032 209.397C156.787 208.546 157.847 208.027 158.983 207.955L206.615 205.012C207.751 204.947 208.867 205.335 209.718 206.089C210.57 206.844 211.088 207.905 211.16 209.04C211.23 210.176 210.846 211.293 210.092 212.145C209.338 212.998 208.277 213.516 207.141 213.586Z" fill="#0560FA" fill-opacity="1.000000" fill-rule="nonzero"/>
		</g>
	</g>
	<g opacity="0.220000">
		<g opacity="0.220000">
			<path id="Vector" d="M237.067 211.746L224.347 212.526C223.212 212.593 222.096 212.208 221.244 211.455C220.392 210.701 219.874 209.641 219.802 208.506C219.732 207.37 220.116 206.252 220.87 205.398C221.623 204.544 222.685 204.024 223.821 203.952L236.541 203.172C237.678 203.103 238.796 203.487 239.649 204.24C240.503 204.994 241.023 206.055 241.095 207.192C241.16 208.329 240.773 209.445 240.019 210.298C239.264 211.151 238.203 211.671 237.067 211.746Z" fill="#0560FA" fill-opacity="1.000000" fill-rule="nonzero"/>
		</g>
	</g>
	<g opacity="0.220000">
		<g opacity="0.220000">
			<path id="Vector" d="M238.118 228.757L160.56 233.539C159.424 233.607 158.308 233.222 157.454 232.469C156.601 231.715 156.081 230.655 156.007 229.52C155.939 228.384 156.324 227.267 157.077 226.414C157.83 225.561 158.89 225.04 160.026 224.966L237.593 220.183C238.728 220.116 239.843 220.501 240.695 221.254C241.547 222.008 242.066 223.068 242.138 224.203C242.208 225.339 241.823 226.457 241.07 227.311C240.316 228.165 239.255 228.685 238.118 228.757Z" fill="#0560FA" fill-opacity="1.000000" fill-rule="nonzero"/>
		</g>
	</g>
	<g opacity="0.220000">
		<path id="Vector" d="M217.995 105.347L219.259 125.801C219.338 127.09 219.67 128.352 220.236 129.513C220.803 130.674 221.593 131.713 222.56 132.569C223.528 133.425 224.655 134.082 225.877 134.502C227.099 134.922 228.391 135.098 229.681 135.019L250.16 133.755L217.995 105.347Z" fill="#0560FA" fill-opacity="1.000000" fill-rule="nonzero"/>
	</g>
	<g opacity="0.500000">
		<path id="Vector" d="M194.065 156.371C194.052 155.391 193.843 154.423 193.45 153.525C193.057 152.627 192.488 151.817 191.776 151.143C191.065 150.469 190.225 149.944 189.308 149.599C188.39 149.255 187.412 149.098 186.433 149.138L118.508 149.138C113.361 149.138 108.332 153.318 107.365 158.466L80.5601 295.799C79.5595 300.947 82.9175 305.127 88.0649 305.127L303.457 305.127C308.604 305.127 313.591 300.955 314.6 295.799L336.707 182.591C337.708 177.436 334.35 173.263 329.202 173.263L212 173.263C201.824 173.263 194.413 166.259 194.065 156.371Z" fill="#0560FA" fill-opacity="1.000000" fill-rule="nonzero"/>
	</g>
</svg>
