<svg width="29.288879" height="26.500000" viewBox="0 0 29.2889 26.5" fill="none" xmlns="http://www.w3.org/2000/svg" xmlns:xlink="http://www.w3.org/1999/xlink">
	<desc>
			Created with Pixso.
	</desc>
	<defs/>
	<rect id="carbon:two-person-lift" width="29.288887" height="26.499998" fill="#FFFFFF" fill-opacity="0"/>
	<path id="Vector" d="M4.09985 24.6403L5.66272 19.1689C5.70685 19.0147 5.70441 18.8509 5.65582 18.698C5.60718 18.5452 5.51447 18.4101 5.3894 18.3097L1.729 15.3816L2.83142 10.9735L5.05908 13.7585C5.13544 13.8536 5.23218 13.9304 5.3421 13.9832C5.45209 14.036 5.57251 14.0634 5.69446 14.0636L9.76245 14.0636L9.76245 12.4364L6.08502 12.4364L3.0755 8.67349C2.98071 8.55533 2.8548 8.466 2.71191 8.41554C2.56909 8.36508 2.41498 8.35551 2.26703 8.38791C2.11902 8.42029 1.98303 8.49335 1.87433 8.59886C1.76562 8.70438 1.68848 8.83813 1.65173 8.98509L0.0245361 15.4939C-0.0134277 15.6448 -0.00720215 15.8035 0.0424194 15.9511C0.09198 16.0986 0.182922 16.2288 0.304382 16.3262L3.94934 19.2421L2.53448 24.1936L4.09985 24.6403ZM4.47406 7.55479C3.91089 7.55479 3.36035 7.38779 2.89203 7.07489C2.42377 6.76199 2.05878 6.31726 1.84326 5.79694C1.62775 5.2766 1.57135 4.70406 1.68121 4.15167C1.79108 3.59929 2.06232 3.0919 2.46051 2.69366C2.85876 2.29541 3.36615 2.02422 3.91852 1.91434C4.47095 1.80446 5.04346 1.86086 5.56378 2.07639C6.08411 2.2919 6.52887 2.65689 6.84174 3.12517C7.15466 3.59346 7.32166 4.14401 7.32166 4.70721C7.3208 5.46217 7.02051 6.18596 6.48669 6.7198C5.95282 7.25365 5.22906 7.55394 4.47406 7.55479ZM4.47406 3.48682C4.23273 3.48682 3.99677 3.5584 3.79608 3.69249C3.5954 3.82658 3.43896 4.01718 3.34656 4.24019C3.25421 4.46318 3.23004 4.70856 3.27716 4.9453C3.32422 5.18202 3.44043 5.39948 3.61115 5.57016C3.7818 5.74083 3.99927 5.85707 4.23602 5.90416C4.47272 5.95125 4.71808 5.92708 4.9411 5.8347C5.16412 5.74234 5.35468 5.58592 5.48883 5.38522C5.62292 5.18452 5.69446 4.94858 5.69446 4.70721C5.69403 4.38367 5.56531 4.07352 5.33655 3.84473C5.10779 3.61595 4.79761 3.48724 4.47406 3.48682Z" fill="#3A3A3A" fill-opacity="1.000000" fill-rule="nonzero"/>
	<path id="Vector" d="M17.9017 15.6908C17.4692 15.6908 17.0546 15.519 16.7488 15.2132C16.443 14.9075 16.2712 14.4928 16.2712 14.0603L16.2712 12.4397C16.2712 12.0072 16.443 11.5925 16.7488 11.2867C17.0546 10.981 17.4692 10.8092 17.9017 10.8092L19.5256 10.8092L19.5256 8.36841L9.76245 8.36841L9.76245 10.8092L11.3864 10.8092C11.8188 10.8092 12.2335 10.981 12.5393 11.2867C12.845 11.5925 13.0168 12.0072 13.0168 12.4397L13.0168 14.0603C13.0168 14.4928 12.845 14.9075 12.5393 15.2132C12.2335 15.519 11.8188 15.6908 11.3864 15.6908L9.76245 15.6908L9.76245 18.1316L19.5256 18.1316L19.5256 15.6908L17.9017 15.6908Z" fill="#3A3A3A" fill-opacity="1.000000" fill-rule="nonzero"/>
	<path id="Vector" d="M25.1883 24.6403L23.6254 19.1689C23.5811 19.0147 23.5835 18.8508 23.6321 18.698C23.6808 18.5451 23.7735 18.41 23.8987 18.3097L27.5591 15.3816L26.4575 10.9727L24.2299 13.7585C24.1534 13.8537 24.0565 13.9305 23.9464 13.9833C23.8363 14.0361 23.7158 14.0636 23.5936 14.0636L19.5256 14.0636L19.5256 12.4364L23.2031 12.4364L26.2134 8.67349C26.3082 8.55533 26.4341 8.466 26.577 8.41554C26.7198 8.36508 26.8739 8.35551 27.0219 8.38791C27.1699 8.42029 27.3059 8.49335 27.4146 8.59886C27.5233 8.70438 27.6004 8.83813 27.6372 8.98509L29.2644 15.4939C29.3023 15.6448 29.2961 15.8035 29.2465 15.9511C29.1969 16.0986 29.106 16.2288 28.9845 16.3262L25.3396 19.2421L26.7536 24.1936L25.1883 24.6403ZM21.9664 4.70721C21.9664 4.14401 22.1334 3.59346 22.4464 3.12517C22.7592 2.65689 23.204 2.2919 23.7243 2.07639C24.2446 1.86086 24.8172 1.80446 25.3696 1.91434C25.9219 2.02422 26.4293 2.29541 26.8276 2.69366C27.2258 3.0919 27.497 3.59929 27.6069 4.15167C27.7167 4.70406 27.6603 5.2766 27.4448 5.79694C27.2293 6.31726 26.8643 6.76199 26.3961 7.07489C25.9277 7.38779 25.3772 7.55479 24.814 7.55479C24.059 7.55394 23.3353 7.25365 22.8014 6.7198C22.2676 6.18596 21.9673 5.46217 21.9664 4.70721ZM23.5936 4.70721C23.5936 4.94858 23.6652 5.18452 23.7993 5.38522C23.9334 5.58592 24.124 5.74234 24.347 5.8347C24.57 5.92708 24.8154 5.95125 25.0521 5.90416C25.2888 5.85707 25.5063 5.74083 25.6769 5.57016C25.8477 5.39948 25.9639 5.18202 26.011 4.9453C26.058 4.70856 26.0339 4.46318 25.9415 4.24019C25.8491 4.01718 25.6927 3.82658 25.492 3.69249C25.2913 3.5584 25.0554 3.48682 24.814 3.48682C24.4905 3.48724 24.1803 3.61595 23.9515 3.84473C23.7228 4.07352 23.5941 4.38367 23.5936 4.70721Z" fill="#3A3A3A" fill-opacity="1.000000" fill-rule="nonzero"/>
</svg>
