<svg width="40.164429" height="33.707184" viewBox="0 0 40.1644 33.7072" fill="none" xmlns="http://www.w3.org/2000/svg" xmlns:xlink="http://www.w3.org/1999/xlink">
	<desc>
			Created with Pixso.
	</desc>
	<defs/>
	<rect id="codicon:package" width="40.164383" height="33.707188" fill="#FFFFFF" fill-opacity="0"/>
	<path id="Vector" d="M20.422 0L38.1561 4.72705L40.1644 6.17914L40.1644 27.0028L39.0212 28.4858L20.0822 33.7072L1.1123 28.4858L0 27.0028L0 6.17914L1.88464 4.72705L19.5879 0L20.422 0ZM20.144 3.08957L7.78577 6.17914L9.48499 6.79706L20.0822 9.57767L29.351 7.0751L32.286 6.17914L20.144 3.08957ZM3.0896 25.8288L18.5374 30.0615L18.5374 12.3583L3.0896 8.21826L3.0896 25.8288ZM21.627 12.3583L21.627 30.0615L37.0748 25.8288L37.0748 8.12555L30.8339 9.83411L30.8339 17.765L27.7443 18.5683L27.7443 10.6806L21.627 12.3583Z" fill="#0560FA" fill-opacity="1.000000" fill-rule="evenodd"/>
</svg>
