<svg width="16.000000" height="22.857143" viewBox="0 0 16 22.8571" fill="none" xmlns="http://www.w3.org/2000/svg" xmlns:xlink="http://www.w3.org/1999/xlink">
	<desc>
			Created with Pixso.
	</desc>
	<defs/>
	<rect id="healthicons:i-certificate-paper-outline" width="16.000000" height="22.857143" fill="#FFFFFF" fill-opacity="0"/>
	<path id="Vector" d="M2.28571 1.14286C1.9826 1.14286 1.69189 1.26326 1.4776 1.47759C1.26324 1.69192 1.14288 1.98261 1.14288 2.28571L1.14288 18.2857C1.14288 18.5888 1.26324 18.8795 1.4776 19.0938C1.69189 19.3082 1.9826 19.4286 2.28571 19.4286L8.57141 19.4286L8.57141 20.5714L2.28571 20.5714C1.6795 20.5714 1.09814 20.3306 0.669495 19.902C0.240845 19.4733 0 18.8919 0 18.2857L0 2.28571C0 1.6795 0.240845 1.09813 0.669495 0.669472C1.09814 0.240814 1.6795 0 2.28571 0L13.7143 0C14.3205 0 14.9019 0.240814 15.3305 0.669472C15.7592 1.09813 16 1.6795 16 2.28571L16 18.2857C16 18.8919 15.7592 19.4733 15.3305 19.902C14.9019 20.3306 14.3205 20.5714 13.7143 20.5714L12 20.5714L12 19.4286L13.7143 19.4286C14.0174 19.4286 14.3081 19.3082 14.5224 19.0938C14.7368 18.8795 14.8571 18.5888 14.8571 18.2857L14.8571 2.28571C14.8571 1.98261 14.7368 1.69192 14.5224 1.47759C14.3081 1.26326 14.0174 1.14286 13.7143 1.14286L2.28571 1.14286Z" fill="#3A3A3A" fill-opacity="1.000000" fill-rule="evenodd"/>
	<path id="Vector" d="M4.57141 3.99999C4.57141 3.84843 4.63165 3.70309 4.73877 3.59592C4.84595 3.48876 4.99127 3.42856 5.14282 3.42856L10.8571 3.42856C11.0087 3.42856 11.1541 3.48876 11.2612 3.59592C11.3683 3.70309 11.4286 3.84843 11.4286 3.99999C11.4286 4.15154 11.3683 4.29688 11.2612 4.40405C11.1541 4.51121 11.0087 4.57141 10.8571 4.57141L5.14282 4.57141C4.99127 4.57141 4.84595 4.51121 4.73877 4.40405C4.63165 4.29688 4.57141 4.15154 4.57141 3.99999ZM2.28571 7.42856C2.28571 7.27701 2.34589 7.13166 2.45306 7.0245C2.56024 6.91733 2.70557 6.85713 2.85712 6.85713L13.1428 6.85713C13.2944 6.85713 13.4398 6.91733 13.5469 7.0245C13.6541 7.13166 13.7143 7.27701 13.7143 7.42856C13.7143 7.58011 13.6541 7.72546 13.5469 7.83262C13.4398 7.93979 13.2944 7.99999 13.1428 7.99999L2.85712 7.99999C2.70557 7.99999 2.56024 7.93979 2.45306 7.83262C2.34589 7.72546 2.28571 7.58011 2.28571 7.42856ZM2.28571 9.71427C2.28571 9.56272 2.34589 9.41737 2.45306 9.31021C2.56024 9.20305 2.70557 9.14285 2.85712 9.14285L13.1428 9.14285C13.2944 9.14285 13.4398 9.20305 13.5469 9.31021C13.6541 9.41737 13.7143 9.56272 13.7143 9.71427C13.7143 9.86583 13.6541 10.0112 13.5469 10.1183C13.4398 10.2255 13.2944 10.2857 13.1428 10.2857L2.85712 10.2857C2.70557 10.2857 2.56024 10.2255 2.45306 10.1183C2.34589 10.0112 2.28571 9.86583 2.28571 9.71427ZM2.28571 12C2.28571 11.8484 2.34589 11.7031 2.45306 11.5959C2.56024 11.4888 2.70557 11.4286 2.85712 11.4286L13.1428 11.4286C13.2944 11.4286 13.4398 11.4888 13.5469 11.5959C13.6541 11.7031 13.7143 11.8484 13.7143 12C13.7143 12.1515 13.6541 12.2969 13.5469 12.404C13.4398 12.5112 13.2944 12.5714 13.1428 12.5714L2.85712 12.5714C2.70557 12.5714 2.56024 12.5112 2.45306 12.404C2.34589 12.2969 2.28571 12.1515 2.28571 12ZM10.2857 17.7143C10.5888 17.7143 10.8795 17.5939 11.0938 17.3795C11.3082 17.1652 11.4286 16.8745 11.4286 16.5714C11.4286 16.2683 11.3082 15.9776 11.0938 15.7633C10.8795 15.549 10.5888 15.4286 10.2857 15.4286C9.9826 15.4286 9.69189 15.549 9.4776 15.7633C9.26324 15.9776 9.14282 16.2683 9.14282 16.5714C9.14282 16.8745 9.26324 17.1652 9.4776 17.3795C9.69189 17.5939 9.9826 17.7143 10.2857 17.7143ZM10.2857 18.8571C10.8919 18.8571 11.4733 18.6163 11.902 18.1877C12.3306 17.759 12.5714 17.1776 12.5714 16.5714C12.5714 15.9652 12.3306 15.3838 11.902 14.9552C11.4733 14.5265 10.8919 14.2857 10.2857 14.2857C9.6795 14.2857 9.09814 14.5265 8.66943 14.9552C8.24078 15.3838 8 15.9652 8 16.5714C8 17.1776 8.24078 17.759 8.66943 18.1877C9.09814 18.6163 9.6795 18.8571 10.2857 18.8571Z" fill="#3A3A3A" fill-opacity="1.000000" fill-rule="evenodd"/>
	<path id="Vector" d="M9.71429 17.7143L8.57141 17.7143L8.57141 22.8571L10.2857 22L12 22.8571L12 17.7143L10.8571 17.7143L10.8571 21.008L10.2857 20.7223L9.71429 21.008L9.71429 17.7143Z" fill="#3A3A3A" fill-opacity="1.000000" fill-rule="evenodd"/>
</svg>
