<svg width="47.999023" height="48.000000" viewBox="0 0 47.999 48" fill="none" xmlns="http://www.w3.org/2000/svg" xmlns:xlink="http://www.w3.org/1999/xlink">
	<desc>
			Created with Pixso.
	</desc>
	<defs/>
	<rect id="healthicons:call-centre" width="47.999023" height="48.000000" fill="#FFFFFF" fill-opacity="0"/>
	<path id="Vector" d="M21.403 15.092C22.2825 15.2578 23.1069 15.6396 23.8024 16.203C24.4978 16.7664 25.0424 17.4937 25.3872 18.3196C25.7319 19.1456 25.8661 20.0442 25.7775 20.9348C25.689 21.8254 25.3806 22.6801 24.88 23.422L38.714 34.16C39.1646 33.9266 39.6807 33.8523 40.1788 33.9492C40.6769 34.0462 41.1276 34.3086 41.4578 34.694C41.7878 35.0793 41.978 35.565 41.9973 36.0721C42.0167 36.5791 41.864 37.0778 41.5642 37.4872C41.2644 37.8966 40.8351 38.1926 40.3458 38.3272C39.8566 38.4618 39.3362 38.4271 38.8691 38.2286C38.4021 38.0302 38.0159 37.6797 37.7731 37.2342C37.5304 36.7886 37.4454 36.274 37.532 35.774L23.4619 24.852C22.7994 25.306 22.0439 25.6066 21.2505 25.7317C20.4572 25.8568 19.6458 25.8033 18.8756 25.5752C18.1056 25.347 17.396 24.95 16.7987 24.4129C16.2015 23.8759 15.7316 23.2124 15.4232 22.4707C15.1149 21.7291 14.9758 20.928 15.0162 20.1258C15.0566 19.3236 15.2755 18.5405 15.6569 17.8336C16.0382 17.1268 16.5725 16.5138 17.2207 16.0396C17.8689 15.5653 18.6147 15.2415 19.4039 15.092L19.402 6L21.402 6L21.402 15.092L21.403 15.092ZM22.2019 20.4C22.2019 20.6364 22.1554 20.8705 22.0649 21.0888C21.9745 21.3072 21.8419 21.5056 21.6747 21.6728C21.5076 21.8399 21.3092 21.9725 21.0908 22.063C20.8724 22.1534 20.6383 22.2 20.402 22.2C20.1655 22.2 19.9315 22.1534 19.7131 22.063C19.4948 21.9725 19.2963 21.8399 19.1292 21.6728C18.962 21.5056 18.8295 21.3072 18.739 21.0888C18.6486 20.8705 18.6019 20.6364 18.6019 20.4C18.6019 19.9226 18.7916 19.4648 19.1292 19.1272C19.4667 18.7896 19.9246 18.6 20.402 18.6C20.8794 18.6 21.3372 18.7896 21.6747 19.1272C22.0123 19.4648 22.2019 19.9226 22.2019 20.4Z" fill="#0560FA" fill-opacity="1.000000" fill-rule="evenodd"/>
	<path id="Vector" d="M27.626 20.384C27.6263 19.0007 27.2283 17.6467 26.4794 16.4837C25.7305 15.3207 24.6625 14.398 23.403 13.826L23.403 6.10599C27.692 6.483 29.92 7.83398 31.915 9.68298C32.015 9.77698 32.115 9.86798 32.2111 9.95599L32.2111 9.957C33.061 10.737 33.7371 11.358 34.0861 12.288L38.3199 23.56C38.4335 23.8625 38.4719 24.1881 38.432 24.5087C38.3921 24.8294 38.2751 25.1356 38.0911 25.4011C37.9069 25.6666 37.6611 25.8836 37.3748 26.0333C37.0885 26.1831 36.7701 26.2612 36.447 26.261L34.816 26.261L34.816 28.6L27.241 22.717C27.4974 21.9663 27.6278 21.1783 27.627 20.385L27.626 20.384ZM17.403 13.846L17.403 6.241C8.41296 7.59399 6 14.301 6 17.975C6 23.742 9.68298 28.215 11.41 30.008L11.41 42L28.522 42L28.522 35.488L32.8149 35.488C33.1169 35.488 33.405 35.42 33.661 35.3L23.076 27.08C21.3265 27.8019 19.363 27.806 17.6106 27.0914C15.8582 26.3767 14.4575 25.0007 13.7118 23.2612C12.9662 21.5217 12.9354 19.5585 13.6262 17.7964C14.317 16.0344 15.6738 14.6152 17.403 13.846Z" fill="#0560FA" fill-opacity="1.000000" fill-rule="nonzero"/>
</svg>
