<svg width="26.085815" height="24.000000" viewBox="0 0 26.0858 24" fill="none" xmlns="http://www.w3.org/2000/svg" xmlns:xlink="http://www.w3.org/1999/xlink">
	<desc>
			Created with Pixso.
	</desc>
	<defs/>
	<rect id="ic:round-log-out" width="26.085787" height="24.000000" fill="#FFFFFF" fill-opacity="0"/>
	<path id="Vector" d="M2 2L11 2C11.5305 2 12.0391 2.21072 12.4142 2.58578C12.7893 2.96085 13 3.46957 13 4L13 5C13 5.26523 12.8947 5.51956 12.7071 5.70709C12.5196 5.89465 12.2652 6 12 6C11.7348 6 11.4804 5.89465 11.2929 5.70709C11.1053 5.51956 11 5.26523 11 5L11 4L2 4L2 20L11 20L11 19C11 18.7348 11.1053 18.4804 11.2929 18.2929C11.4804 18.1053 11.7348 18 12 18C12.2652 18 12.5196 18.1053 12.7071 18.2929C12.8947 18.4804 13 18.7348 13 19L13 20C13 20.5304 12.7893 21.0392 12.4142 21.4142C12.0391 21.7893 11.5305 22 11 22L2 22C1.46954 22 0.960876 21.7893 0.585815 21.4142C0.210693 21.0392 0 20.5304 0 20L0 4C0 3.46957 0.210693 2.96085 0.585815 2.58578C0.960876 2.21072 1.46954 2 2 2Z" fill="#ED3A3A" fill-opacity="1.000000" fill-rule="nonzero"/>
	<path id="Vector" d="M20.795 16.2777C21.185 16.6677 21.815 16.6677 22.205 16.2777L25.793 12.6897C25.9805 12.5021 26.0858 12.2478 26.0858 11.9827C26.0858 11.7175 25.9805 11.4632 25.793 11.2757L22.205 7.68768C22.0149 7.51587 21.7661 7.42368 21.5099 7.43011C21.2538 7.43658 21.0099 7.54123 20.8287 7.72241C20.6476 7.90359 20.5429 8.14746 20.5364 8.40359C20.53 8.65973 20.6222 8.90857 20.794 9.09866L22.67 10.9827L14 10.9827C13.7348 10.9827 13.4804 11.088 13.2929 11.2756C13.1053 11.4631 13 11.7175 13 11.9827C13 12.2479 13.1053 12.5022 13.2929 12.6898C13.4804 12.8773 13.7348 12.9827 14 12.9827L22.67 12.9827L20.794 14.8667C20.6074 15.0541 20.5026 15.3079 20.5028 15.5724C20.503 15.8369 20.6081 16.0905 20.795 16.2777Z" fill="#ED3A3A" fill-opacity="1.000000" fill-rule="nonzero"/>
</svg>
