<svg width="215.000000" height="77.556580" viewBox="0 0 215 77.5566" fill="none" xmlns="http://www.w3.org/2000/svg" xmlns:xlink="http://www.w3.org/1999/xlink">
	<desc>
			Created with Pixso.
	</desc>
	<defs/>
	<path id="Vector" d="M90.2329 34.562L81.2734 34.562L81.2734 55.1716L70.0394 55.1716L70.0394 0L90.2884 0C96.7237 0 101.689 1.44239 105.184 4.29945C108.679 7.18423 110.426 11.234 110.426 16.4766C110.426 20.1935 109.622 23.3002 108.013 25.7689C106.404 28.2654 103.963 30.2348 100.69 31.7049L112.479 53.9788L112.479 55.1439L100.746 55.1439L90.2329 34.562ZM81.3011 25.4638L90.3716 25.4638C93.2009 25.4638 95.3645 24.7426 96.9178 23.3002C98.4712 21.8578 99.2479 19.8884 99.2479 17.3642C99.2479 14.7845 98.5267 12.7596 97.0565 11.2895C95.5864 9.81938 93.3673 9.07044 90.3439 9.07044L81.3289 9.07044L81.3289 25.4638L81.3011 25.4638Z" fill="#0560FA" fill-opacity="1.000000" fill-rule="nonzero"/>
	<path id="Vector" d="M136.944 55.2549C131.008 55.2549 126.154 53.4242 122.437 49.7905C118.692 46.1568 116.834 41.3025 116.834 35.2278L116.834 34.1738C116.834 30.0962 117.611 26.4625 119.192 23.2449C120.773 20.0272 122.992 17.5585 125.877 15.8387C128.761 14.0912 132.062 13.2313 135.752 13.2313C141.299 13.2313 145.654 14.9788 148.844 18.4739C152.034 21.9689 153.615 26.9341 153.615 33.3416L153.615 37.752L127.818 37.752C128.179 40.3872 129.233 42.523 130.981 44.1041C132.728 45.7129 134.975 46.4896 137.665 46.4896C141.826 46.4896 145.099 44.9917 147.429 41.9683L152.755 47.932C151.119 50.2343 148.927 52.0095 146.153 53.3133C143.38 54.617 140.301 55.2549 136.944 55.2549ZM135.696 21.9689C133.56 21.9689 131.813 22.6901 130.481 24.1602C129.15 25.6026 128.29 27.683 127.929 30.4014L142.991 30.4014L142.991 29.5415C142.936 27.1282 142.298 25.2698 141.05 23.9661C139.774 22.6346 137.998 21.9689 135.696 21.9689Z" fill="#0560FA" fill-opacity="1.000000" fill-rule="nonzero"/>
	<path id="Vector" d="M158.053 33.9517C158.053 27.6274 159.468 22.6068 162.297 18.8621C165.127 15.1174 169.01 13.2589 173.92 13.2589C177.858 13.2589 181.132 14.7291 183.683 17.6693L183.683 0L194.529 0L194.529 55.1716L184.738 55.1716L184.238 50.2064C181.548 53.5628 178.08 55.2548 173.836 55.2548C169.065 55.2548 165.237 53.3686 162.353 49.6239C159.496 45.8792 158.053 40.6644 158.053 33.9517ZM168.871 34.7562C168.871 38.5563 169.537 41.4688 170.868 43.4937C172.2 45.5186 174.114 46.545 176.638 46.545C179.994 46.545 182.352 45.1303 183.711 42.301L183.711 26.296C182.352 23.4667 180.022 22.052 176.693 22.052C171.479 22.052 168.871 26.296 168.871 34.7562Z" fill="#0560FA" fill-opacity="1.000000" fill-rule="nonzero"/>
	<path id="Vector" d="M202.878 5.57541C202.878 3.96658 203.433 2.60741 204.515 1.58109C205.597 0.527027 207.067 0 208.953 0C210.812 0 212.282 0.527027 213.363 1.58109C214.473 2.63514 215 3.96658 215 5.57541C215 7.21197 214.445 8.57115 213.336 9.62521C212.226 10.6793 210.756 11.2063 208.925 11.2063C207.095 11.2063 205.624 10.6793 204.515 9.62521C203.433 8.57115 202.878 7.23971 202.878 5.57541Z" fill="#EC8000" fill-opacity="1.000000" fill-rule="nonzero"/>
	<path id="Vector" d="M203.516 13.259L214.362 13.259L214.362 55.1717L203.516 55.1717L203.516 13.259Z" fill="#0560FA" fill-opacity="1.000000" fill-rule="evenodd"/>
	<path id="Vector" d="M134.587 72.5359C133.422 72.5359 132.368 72.2585 131.424 71.676C130.481 71.0935 129.76 70.2891 129.233 69.2905C128.706 68.2642 128.456 67.127 128.456 65.851L128.456 65.2962C128.456 63.9925 128.706 62.7998 129.233 61.7457C129.732 60.6917 130.454 59.8595 131.369 59.2493C132.284 58.639 133.255 58.3339 134.337 58.3339C136.001 58.3339 137.305 58.8887 138.304 60.0259C139.302 61.1632 139.774 62.7166 139.774 64.686L139.774 65.5459L130.01 65.5459L130.01 65.8232C130.01 67.3766 130.454 68.6803 131.341 69.7066C132.229 70.7329 133.338 71.26 134.698 71.26C135.502 71.26 136.223 71.1213 136.833 70.8162C137.444 70.511 138.026 70.0395 138.525 69.4015L139.469 70.1227C138.331 71.7315 136.695 72.5359 134.587 72.5359ZM134.309 59.6376C133.172 59.6376 132.201 60.0537 131.424 60.8858C130.648 61.718 130.176 62.8552 130.01 64.2422L138.22 64.2422L138.22 64.0757C138.165 62.772 137.804 61.6902 137.083 60.8581C136.39 60.0537 135.446 59.6376 134.309 59.6376Z" fill="#0560FA" fill-opacity="1.000000" fill-rule="nonzero"/>
	<path id="Vector" d="M146.986 64.1589L150.675 58.6112L152.478 58.6112L147.846 65.3239L152.7 72.2862L150.897 72.2862L146.986 66.4889L143.075 72.2862L141.299 72.2862L146.126 65.3239L141.493 58.6112L143.269 58.6112L146.986 64.1589Z" fill="#0560FA" fill-opacity="1.000000" fill-rule="nonzero"/>
	<path id="Vector" d="M166.292 65.5735C166.292 67.7094 165.82 69.4014 164.877 70.6496C163.934 71.8979 162.658 72.5358 161.077 72.5358C159.19 72.5358 157.776 71.8701 156.777 70.5664L156.777 77.5565L155.279 77.5565L155.279 58.5834L156.694 58.5834L156.777 60.5251C157.776 59.055 159.19 58.3338 161.077 58.3338C162.713 58.3338 163.989 58.944 164.932 60.1923C165.875 61.4405 166.319 63.1603 166.319 65.3516L166.319 65.5735L166.292 65.5735ZM164.766 65.3239C164.766 63.5764 164.405 62.1894 163.684 61.1909C162.963 60.1645 161.964 59.6652 160.688 59.6652C159.773 59.6652 158.969 59.8871 158.303 60.331C157.637 60.7748 157.138 61.4405 156.777 62.2726L156.777 68.8466C157.138 69.6233 157.665 70.2336 158.331 70.6496C158.996 71.0657 159.801 71.2599 160.716 71.2599C161.992 71.2599 162.991 70.7606 163.684 69.7343C164.433 68.7357 164.766 67.2378 164.766 65.3239Z" fill="#0560FA" fill-opacity="1.000000" fill-rule="nonzero"/>
	<path id="Vector" d="M175.972 59.8871C175.639 59.8317 175.306 59.8039 174.946 59.8039C174.003 59.8039 173.198 60.0813 172.56 60.6083C171.922 61.1354 171.451 61.912 171.173 62.9106L171.173 72.3139L169.676 72.3139L169.676 58.6112L171.146 58.6112L171.173 60.7748C171.978 59.166 173.254 58.3338 175.029 58.3338C175.445 58.3338 175.778 58.3893 176.028 58.5002L175.972 59.8871Z" fill="#0560FA" fill-opacity="1.000000" fill-rule="nonzero"/>
	<path id="Vector" d="M183.434 72.5358C182.269 72.5358 181.215 72.2585 180.272 71.6759C179.329 71.0934 178.607 70.289 178.08 69.2905C177.553 68.2641 177.304 67.1269 177.304 65.8509L177.304 65.2961C177.304 63.9924 177.553 62.7997 178.08 61.7456C178.58 60.6916 179.301 59.8594 180.216 59.2492C181.132 58.6389 182.102 58.3338 183.184 58.3338C184.849 58.3338 186.152 58.8886 187.151 60.0258C188.149 61.1631 188.621 62.7165 188.621 64.6859L188.621 65.5458L178.857 65.5458L178.857 65.8232C178.857 67.3765 179.301 68.6802 180.188 69.7065C181.076 70.7328 182.186 71.2599 183.545 71.2599C184.349 71.2599 185.07 71.1212 185.681 70.8161C186.291 70.5109 186.873 70.0394 187.373 69.4014L188.316 70.1226C187.179 71.7314 185.542 72.5358 183.434 72.5358ZM183.156 59.6375C182.019 59.6375 181.048 60.0536 180.272 60.8857C179.495 61.7179 179.023 62.8552 178.857 64.2421L187.068 64.2421L187.068 64.0756C187.012 62.7719 186.651 61.6901 185.93 60.858C185.237 60.0536 184.294 59.6375 183.156 59.6375Z" fill="#0560FA" fill-opacity="1.000000" fill-rule="nonzero"/>
	<path id="Vector" d="M199.716 68.8189C199.716 68.07 199.411 67.4597 198.801 67.0159C198.191 66.5721 197.275 66.2115 196.082 65.9341C194.862 65.6845 193.919 65.3793 193.253 65.0465C192.587 64.7136 192.088 64.2975 191.755 63.826C191.422 63.3544 191.256 62.7719 191.256 62.0785C191.256 60.9967 191.7 60.1091 192.615 59.3879C193.531 58.6944 194.668 58.3338 196.082 58.3338C197.608 58.3338 198.829 58.7221 199.772 59.4711C200.715 60.22 201.159 61.2186 201.159 62.4391L199.633 62.4391C199.633 61.6347 199.3 60.9689 198.634 60.4419C197.969 59.9149 197.109 59.6375 196.11 59.6375C195.112 59.6375 194.307 59.8594 193.725 60.3032C193.115 60.747 192.809 61.3295 192.809 62.023C192.809 62.7165 193.059 63.2435 193.558 63.6041C194.058 63.9924 194.973 64.3253 196.304 64.6304C197.636 64.9355 198.634 65.2684 199.3 65.629C199.966 65.9896 200.465 66.4057 200.77 66.905C201.103 67.4042 201.242 68.0145 201.242 68.7079C201.242 69.873 200.77 70.7883 199.855 71.4818C198.912 72.1752 197.691 72.5081 196.193 72.5081C194.585 72.5081 193.309 72.1198 192.31 71.3431C191.311 70.5664 190.812 69.5956 190.812 68.4028L192.338 68.4028C192.393 69.2905 192.782 69.9839 193.447 70.4832C194.141 70.9825 195.056 71.2321 196.166 71.2321C197.22 71.2321 198.08 71.0102 198.718 70.5387C199.411 70.0949 199.716 69.5124 199.716 68.8189Z" fill="#0560FA" fill-opacity="1.000000" fill-rule="nonzero"/>
	<path id="Vector" d="M212.864 68.8189C212.864 68.07 212.559 67.4597 211.949 67.0159C211.339 66.5721 210.423 66.2115 209.23 65.9341C208.01 65.6845 207.067 65.3793 206.401 65.0465C205.735 64.7136 205.236 64.2975 204.903 63.826C204.57 63.3544 204.404 62.7719 204.404 62.0785C204.404 60.9967 204.848 60.1091 205.763 59.3879C206.679 58.6944 207.816 58.3338 209.23 58.3338C210.756 58.3338 211.977 58.7221 212.92 59.4711C213.863 60.22 214.307 61.2186 214.307 62.4391L212.781 62.4391C212.781 61.6347 212.448 60.9689 211.782 60.4419C211.117 59.9149 210.257 59.6375 209.258 59.6375C208.26 59.6375 207.455 59.8594 206.873 60.3032C206.262 60.747 205.957 61.3295 205.957 62.023C205.957 62.7165 206.207 63.2435 206.706 63.6041C207.206 63.9924 208.121 64.3253 209.452 64.6304C210.784 64.9355 211.782 65.2684 212.448 65.629C213.114 65.9896 213.613 66.4057 213.918 66.905C214.251 67.4042 214.39 68.0145 214.39 68.7079C214.39 69.873 213.918 70.7883 213.003 71.4818C212.06 72.1752 210.839 72.5081 209.341 72.5081C207.733 72.5081 206.457 72.1198 205.458 71.3431C204.459 70.5664 203.96 69.5956 203.96 68.4028L205.486 68.4028C205.541 69.2905 205.93 69.9839 206.595 70.4832C207.289 70.9825 208.204 71.2321 209.314 71.2321C210.368 71.2321 211.228 71.0102 211.866 70.5387C212.531 70.0949 212.864 69.5124 212.864 68.8189Z" fill="#0560FA" fill-opacity="1.000000" fill-rule="nonzero"/>
	<path id="Vector" d="M62.6887 29.1256L62.6887 43.605L50.1509 36.3653L40.9695 31.0673L37.6132 29.1256L25.0755 21.8859L19.2504 18.5295L12.5377 14.6462L0 7.40646L2.46869 5.9918L12.5377 0.166748L22.6068 5.9918L25.0755 7.40646L37.6132 14.6462L44.3259 18.5295L50.1509 21.8859L62.6887 29.1256Z" fill="#0560FA" fill-opacity="1.000000" fill-rule="nonzero"/>
	<path id="Vector" d="M62.6887 43.6049L50.1509 50.8168L40.9695 56.1148L37.6132 58.0565L34.2568 56.1148L25.0754 50.8168L37.6132 43.6049L37.6132 43.5771L62.6887 29.1254L62.6887 43.6049Z" fill="#0045AA" fill-opacity="1.000000" fill-rule="nonzero"/>
	<path id="Vector" d="M25.0755 36.3654L12.5377 43.5774L12.5377 72.5362L5.82507 68.6528L0 65.2965L0 21.886L12.5377 29.1257L15.8941 31.0674L25.0755 36.3654Z" fill="#EC8000" fill-opacity="1.000000" fill-rule="nonzero"/>
	<path id="Vector" d="M25.0754 65.2966L19.2504 68.6529L12.5377 72.5363L12.5377 58.0569L25.0754 65.2966Z" fill="#B75F00" fill-opacity="1.000000" fill-rule="nonzero"/>
</svg>
