<svg width="24.000000" height="24.000000" viewBox="0 0 24 24" fill="none" xmlns="http://www.w3.org/2000/svg" xmlns:xlink="http://www.w3.org/1999/xlink">
	<desc>
			Created with Pixso.
	</desc>
	<defs/>
	<path id="Vector" d="M22 15C22 17.5 21.5 19.25 20.38 20.38L14 14L21.73 6.27002C21.91 7.06001 22 7.96002 22 9.00002L22 15Z" stroke="#292D32" stroke-opacity="1.000000" stroke-width="1.500000" stroke-linejoin="round"/>
	<path id="Vector" d="M6.27002 21.73C3.26001 21.04 2 18.96 2 15L2 9C2 4 4 2 9 2L15 2C18.96 2 21.04 3.26001 21.73 6.27L6.27002 21.73Z" stroke="#292D32" stroke-opacity="1.000000" stroke-width="1.500000" stroke-linejoin="round"/>
	<path id="Vector" d="M15 22L9 22C7.96002 22 7.06 21.91 6.27002 21.73L14 14L20.38 20.38C19.2501 21.5 17.5 22 15 22Z" stroke="#292D32" stroke-opacity="1.000000" stroke-width="1.500000" stroke-linejoin="round"/>
	<path id="Vector" d="M12 7.97997C12.39 9.69997 11.31 11.16 10.36 12.06C9.67004 12.72 8.58002 12.72 7.88 12.06C6.93005 11.16 5.84003 9.69997 6.23999 7.97997C6.92004 5.04997 11.32 5.04997 12 7.97997Z" stroke="#292D32" stroke-opacity="1.000000" stroke-width="1.500000"/>
	<g opacity="0.000000"/>
	<path id="Vector" d="M9.0946 8.70001L9.10358 8.70001" stroke="#292D32" stroke-opacity="1.000000" stroke-width="2.000000" stroke-linejoin="round" stroke-linecap="round"/>
</svg>
