<svg width="24.000000" height="24.000000" viewBox="0 0 24 24" fill="none" xmlns="http://www.w3.org/2000/svg" xmlns:xlink="http://www.w3.org/1999/xlink">
	<desc>
			Created with Pixso.
	</desc>
	<defs/>
	<path id="Vector" d="M11.88 12.78C10.12 12.72 8.71997 11.28 8.71997 9.50998C8.71997 7.69998 10.18 6.22998 12 6.22998C13.81 6.22998 15.28 7.69998 15.28 9.50998C15.27 11.28 13.88 12.72 12.12 12.78C12.05 12.77 11.96 12.77 11.88 12.78Z" stroke="#A7A7A7" stroke-opacity="1.000000" stroke-width="1.500000" stroke-linejoin="round"/>
	<path id="Vector" d="M12 22.0001C9.40002 22.0001 7.04001 21.0101 5.26001 19.3801C5.36002 18.4401 5.96002 17.5201 7.03 16.8C9.77002 14.9801 14.25 14.9801 16.97 16.8C18.04 17.5201 18.64 18.4401 18.74 19.3801C16.96 21.0101 14.6 22.0001 12 22.0001Z" stroke="#A7A7A7" stroke-opacity="1.000000" stroke-width="1.500000" stroke-linejoin="round"/>
	<path id="Vector" d="M12 22C6.47714 22 2 17.5229 2 12C2 6.47714 6.47714 2 12 2C17.5229 2 22 6.47714 22 12C22 17.5229 17.5229 22 12 22Z" stroke="#A7A7A7" stroke-opacity="1.000000" stroke-width="1.500000" stroke-linejoin="round"/>
	<g opacity="0.000000"/>
</svg>
