<svg width="34.571411" height="33.000000" viewBox="0 0 34.5714 33" fill="none" xmlns="http://www.w3.org/2000/svg" xmlns:xlink="http://www.w3.org/1999/xlink">
	<desc>
			Created with Pixso.
	</desc>
	<defs/>
	<path id="Vector" d="M6.3197 32.5557C6.07141 32.7817 5.76685 32.9289 5.44165 32.98C5.11633 33.0311 4.78394 32.9839 4.4834 32.8439C4.18286 32.704 3.92664 32.4772 3.74487 32.19C3.56311 31.9029 3.46326 31.5674 3.45715 31.2229L3.45715 27.1614C2.54028 27.1614 1.66089 26.7798 1.01257 26.1007C0.364258 25.4215 0 24.5004 0 23.5399L0 10.8646C0 9.90407 0.364258 8.98293 1.01257 8.30376C1.66089 7.62459 2.54028 7.24304 3.45715 7.24304L22.4714 7.24304C23.3883 7.24304 24.2677 7.62459 24.916 8.30376C25.5643 8.98293 25.9286 9.90407 25.9286 10.8646L25.9286 23.5399C25.9286 24.5004 25.5643 25.4215 24.916 26.1007C24.2677 26.7798 23.3883 27.1614 22.4714 27.1614L13.8337 27.1614L6.3197 32.5557ZM27.6571 18.1384C27.6516 18.3611 27.6516 18.5839 27.6571 18.8065L27.6571 18.1366C27.6658 17.9428 27.6675 15.5164 27.6641 10.8591C27.6627 9.41934 27.1157 8.03902 26.1433 7.02144C25.171 6.00386 23.8528 5.43228 22.4784 5.43228L8.64282 5.43228L8.64282 3.62152C8.64282 2.66104 9.00708 1.73988 9.6554 1.06071C10.3037 0.381546 11.1831 0 12.1 0L31.1143 0C32.0311 0 32.9105 0.381546 33.5588 1.06071C34.2072 1.73988 34.5714 2.66104 34.5714 3.62152L34.5714 16.2968C34.5714 17.2573 34.2072 18.1785 33.5588 18.8576C32.9105 19.5368 32.0311 19.9184 31.1143 19.9184L31.1143 23.9799C31.1082 24.3244 31.0083 24.6599 30.8265 24.947C30.6448 25.2341 30.3885 25.461 30.088 25.6009C29.7875 25.7408 29.4551 25.788 29.1299 25.737C28.8046 25.6859 28.5 25.5387 28.2518 25.3126L27.6571 24.8853L27.6571 18.1384Z" fill="#FFFFFF" fill-opacity="1.000000" fill-rule="nonzero"/>
</svg>
