<svg width="16.000000" height="16.000000" viewBox="0 0 16 16" fill="none" xmlns="http://www.w3.org/2000/svg" xmlns:xlink="http://www.w3.org/1999/xlink">
	<desc>
			Created with Pixso.
	</desc>
	<defs/>
	<path id="Vector" d="M8 0C3.58136 0 0 3.582 0 8C0 12.418 3.58136 16 8 16C12.418 16 16 12.418 16 8C16 3.582 12.418 0 8 0ZM8.09332 12.6787C5.51465 12.6787 3.4267 10.5853 3.4267 8C3.4267 5.41467 5.51465 3.32132 8.09332 3.32132C9.35333 3.32132 10.4067 3.78601 11.2147 4.54068L9.89868 5.85934L9.89868 5.85666C9.40869 5.38867 8.78735 5.14868 8.09332 5.14868C6.55334 5.14868 5.302 6.45267 5.302 7.99734C5.302 9.54068 6.55334 10.8487 8.09332 10.8487C9.49066 10.8487 10.4413 10.0473 10.6373 8.94733L8.09332 8.94733L8.09332 7.12268L12.4833 7.12268C12.542 7.436 12.5734 7.76266 12.5734 8.10535C12.5734 10.7787 10.7887 12.6787 8.09332 12.6787Z" fill="#EC8000" fill-opacity="1.000000" fill-rule="evenodd"/>
</svg>
