<svg width="34.144165" height="37.000000" viewBox="0 0 34.1442 37" fill="none" xmlns="http://www.w3.org/2000/svg" xmlns:xlink="http://www.w3.org/1999/xlink">
	<desc>
			Created with Pixso.
	</desc>
	<defs/>
	<path id="Vector" d="M20.9645 0.642197C20.6731 0.404068 20.3374 0.22612 19.9768 0.118607C19.6163 0.0110931 19.2379 -0.023819 18.8638 0.0158691C18.4896 0.0555725 18.127 0.169083 17.797 0.349854C17.4669 0.530624 17.1761 0.775055 16.9412 1.06898L8.70105 11.3919L12.3431 11.3919L19.1635 2.84448L21.3544 4.6342L15.8628 11.3919L19.5276 11.3919L23.5594 6.42963L28.4478 10.4216L27.5999 11.3919L28.4535 11.3919C29.302 11.391 30.1459 11.5166 30.9574 11.7646C31.2673 11.1831 31.3658 10.5121 31.2361 9.86601C31.1064 9.21996 30.7565 8.63895 30.246 8.22218L20.9645 0.642197ZM2.84534 12.8146C2.84534 12.4373 2.99524 12.0754 3.26208 11.8086C3.52881 11.5418 3.89075 11.3919 4.26807 11.3919L5.85571 11.3919L8.1178 8.54655L4.26807 8.54655C3.13611 8.54655 2.05054 8.99622 1.25012 9.79663C0.449707 10.597 0 11.6826 0 12.8146L0 29.8866C0 31.7732 0.74939 33.5825 2.0835 34.9165C3.41748 36.2505 5.22681 37 7.1134 37L28.4535 37C29.9628 37 31.4102 36.4005 32.4774 35.3332C33.5446 34.266 34.1442 32.8186 34.1442 31.3093L34.1442 19.9279C34.1442 18.4187 33.5446 16.9712 32.4774 15.904C31.4102 14.8368 29.9628 14.2372 28.4535 14.2372L4.26807 14.2372C3.89075 14.2372 3.52881 14.0874 3.26208 13.8206C2.99524 13.5538 2.84534 13.1919 2.84534 12.8146ZM24.1854 25.6186L27.0308 25.6186C27.4081 25.6186 27.7699 25.7685 28.0367 26.0353C28.3036 26.3021 28.4535 26.664 28.4535 27.0413C28.4535 27.4186 28.3036 27.7805 28.0367 28.0473C27.7699 28.3141 27.4081 28.464 27.0308 28.464L24.1854 28.464C23.8081 28.464 23.4463 28.3141 23.1794 28.0473C22.9126 27.7805 22.7627 27.4186 22.7627 27.0413C22.7627 26.664 22.9126 26.3021 23.1794 26.0353C23.4463 25.7685 23.8081 25.6186 24.1854 25.6186Z" fill="#0560FA" fill-opacity="1.000000" fill-rule="nonzero"/>
</svg>
