<svg width="14.000000" height="14.000000" viewBox="0 0 14 14" fill="none" xmlns="http://www.w3.org/2000/svg" xmlns:xlink="http://www.w3.org/1999/xlink">
	<desc>
			Created with Pixso.
	</desc>
	<defs/>
	<path id="Vector" d="M5.52417 8.47585C5.14502 8.09668 4.91168 7.57751 4.91168 7.00002C4.91168 5.84502 5.845 4.91168 7 4.91168C7.57751 4.91168 8.09668 5.14502 8.47586 5.52418L5.52417 8.47585Z" stroke="#141414" stroke-opacity="1.000000" stroke-width="1.500000" stroke-linejoin="round"/>
	<path id="Vector" d="M10.395 3.36584C9.37418 2.59584 8.20749 2.17584 7 2.17584C4.94083 2.17584 3.02167 3.38918 1.68582 5.48917C1.16083 6.31168 1.16083 7.69418 1.68582 8.51668C2.14667 9.24001 2.68332 9.86417 3.26666 10.3658" stroke="#141414" stroke-opacity="1.000000" stroke-width="1.500000" stroke-linejoin="round" stroke-linecap="round"/>
	<path id="Vector" d="M4.91168 11.3925C5.57669 11.6725 6.2825 11.8242 7.00003 11.8242C9.05917 11.8242 10.9784 10.6108 12.3142 8.51083C12.8392 7.68832 12.8392 6.30582 12.3142 5.48332C12.1217 5.17999 11.9117 4.89416 11.6959 4.62582" stroke="#141414" stroke-opacity="1.000000" stroke-width="1.500000" stroke-linejoin="round" stroke-linecap="round"/>
	<path id="Vector" d="M9.04749 7.40833C8.89584 8.23083 8.22501 8.90166 7.4025 9.05332" stroke="#141414" stroke-opacity="1.000000" stroke-width="1.500000" stroke-linejoin="round" stroke-linecap="round"/>
	<path id="Vector" d="M5.52417 8.47583L1.16666 12.8333" stroke="#141414" stroke-opacity="1.000000" stroke-width="1.500000" stroke-linejoin="round" stroke-linecap="round"/>
	<path id="Vector" d="M12.8333 1.16666L8.47583 5.52415" stroke="#141414" stroke-opacity="1.000000" stroke-width="1.500000" stroke-linejoin="round" stroke-linecap="round"/>
	<g opacity="0.000000"/>
</svg>
