<svg width="24.000000" height="24.000000" viewBox="0 0 24 24" fill="none" xmlns="http://www.w3.org/2000/svg" xmlns:xlink="http://www.w3.org/1999/xlink">
	<desc>
			Created with Pixso.
	</desc>
	<defs/>
	<path id="Vector" d="M2 22L22 22" stroke="#A7A7A7" stroke-opacity="1.000000" stroke-width="1.500000" stroke-linejoin="round" stroke-linecap="round"/>
	<path id="Vector" d="M2.95001 22.0003L3 9.97025C3 9.36023 3.29004 8.78027 3.77002 8.4003L10.77 2.95029C11.49 2.39026 12.5 2.39026 13.23 2.95029L20.23 8.39029C20.72 8.77026 21 9.35022 21 9.97025L21 22.0003" stroke="#A7A7A7" stroke-opacity="1.000000" stroke-width="1.500000" stroke-linejoin="round"/>
	<path id="Vector" d="M8.5 11C7.66998 11 7 11.67 7 12.5L7 22L17 22L17 12.5C17 11.67 16.33 11 15.5 11L8.5 11Z" stroke="#A7A7A7" stroke-opacity="1.000000" stroke-width="1.500000" stroke-linejoin="round"/>
	<path id="Vector" d="M10 16.25L10 17.75" stroke="#A7A7A7" stroke-opacity="1.000000" stroke-width="1.500000" stroke-linejoin="round" stroke-linecap="round"/>
	<path id="Vector" d="M10.5 7.5L13.5 7.5" stroke="#A7A7A7" stroke-opacity="1.000000" stroke-width="1.500000" stroke-linejoin="round" stroke-linecap="round"/>
	<g opacity="0.000000"/>
</svg>
