<svg width="20.000000" height="20.000000" viewBox="0 0 20 20" fill="none" xmlns="http://www.w3.org/2000/svg" xmlns:xlink="http://www.w3.org/1999/xlink">
	<desc>
			Created with Pixso.
	</desc>
	<defs/>
	<rect id="vuesax/linear/notification" width="20.000000" height="20.000000" fill="#FFFFFF" fill-opacity="0"/>
	<path id="Vector" d="M5.0166 7.42493L5.0166 9.83326C5.0166 10.3416 4.79993 11.1166 4.54163 11.5499L3.58331 13.1416C2.99164 14.1249 3.39996 15.2166 4.48328 15.5833C8.07495 16.7833 11.95 16.7833 15.5416 15.5833C16.5499 15.2499 16.9916 14.0583 16.4416 13.1416L15.4833 11.5499C15.2333 11.1166 15.0166 10.3416 15.0166 9.83326L15.0166 7.42493C15.0166 4.67493 12.7666 2.42493 10.0166 2.42493C7.2583 2.42493 5.0166 4.66659 5.0166 7.42493Z" stroke="#3A3A3A" stroke-opacity="1.000000" stroke-width="1.250000"/>
	<path id="Vector" d="M10.7584 2.49994C9.95837 2.39994 9.19171 2.45827 8.47504 2.66661C8.71667 2.04994 9.31671 1.61661 10.0167 1.61661C10.7167 1.61661 11.3167 2.04994 11.5583 2.66661C11.3 2.59161 11.0334 2.53327 10.7584 2.49994Z" stroke="#3A3A3A" stroke-opacity="1.000000" stroke-width="1.250000" stroke-linejoin="round"/>
	<path id="Vector" d="M12.5167 15.8834C12.5167 17.2584 11.3917 18.3834 10.0167 18.3834C9.33331 18.3834 8.70001 18.1001 8.25 17.6501C7.79999 17.2001 7.51666 16.5667 7.51666 15.8834" stroke="#3A3A3A" stroke-opacity="1.000000" stroke-width="1.250000"/>
	<g opacity="0.000000"/>
</svg>
