<svg width="22.000000" height="22.000000" viewBox="0 0 22 22" fill="none" xmlns="http://www.w3.org/2000/svg" xmlns:xlink="http://www.w3.org/1999/xlink">
	<desc>
			Created with Pixso.
	</desc>
	<defs/>
	<rect id="vuesax/linear/wallet-2" width="22.000000" height="22.000000" fill="#FFFFFF" fill-opacity="0"/>
	<path id="Vector" d="M11.9167 8.25L6.41669 8.25" stroke="#292D32" stroke-opacity="1.000000" stroke-width="1.375000" stroke-linejoin="round" stroke-linecap="round"/>
	<path id="Vector" d="M20.1666 11.9442C20.1666 12.4484 19.7632 12.8608 19.2499 12.8792L17.4532 12.8792C16.4633 12.8792 15.5558 12.155 15.4733 11.165C15.4183 10.5875 15.6382 10.0467 16.0233 9.67083C16.3624 9.32249 16.8299 9.12085 17.3433 9.12085L19.2499 9.12085C19.7632 9.13918 20.1666 9.55164 20.1666 10.0558L20.1666 11.9442Z" stroke="#292D32" stroke-opacity="1.000000" stroke-width="1.375000" stroke-linejoin="round"/>
	<path id="Vector" d="M15.4733 11.1651C15.5558 12.1551 16.4633 12.8793 17.4533 12.8793L19.25 12.8793L19.25 14.2084C19.25 16.9584 17.4166 18.7918 14.6666 18.7918L6.41663 18.7918C3.66663 18.7918 1.83331 16.9584 1.83331 14.2084L1.83331 7.79177C1.83331 5.29843 3.33667 3.55676 5.67413 3.26344C5.91248 3.22677 6.15997 3.20844 6.41663 3.20844L14.6666 3.20844C14.905 3.20844 15.1342 3.21759 15.3541 3.25426C17.7192 3.52926 19.25 5.2801 19.25 7.79177L19.25 9.12095L17.3433 9.12095C16.83 9.12095 16.3625 9.32259 16.0233 9.67092C15.6383 10.0468 15.4183 10.5876 15.4733 11.1651Z" stroke="#292D32" stroke-opacity="1.000000" stroke-width="1.375000" stroke-linejoin="round"/>
	<g opacity="0.000000"/>
</svg>
