<svg width="24.000000" height="24.000000" viewBox="0 0 24 24" fill="none" xmlns="http://www.w3.org/2000/svg" xmlns:xlink="http://www.w3.org/1999/xlink">
	<desc>
			Created with Pixso.
	</desc>
	<defs/>
	<rect id="vuesax/linear/profile-circle" width="24.000000" height="24.000000" fill="#FFFFFF" fill-opacity="0"/>
	<path id="Vector" d="M12 22C17.5228 22 22 17.5228 22 12C22 6.47716 17.5228 2 12 2C6.47716 2 2 6.47716 2 12C2 17.5228 6.47716 22 12 22Z" fill="#0560FA" fill-opacity="1.000000" fill-rule="nonzero"/>
	<path id="Vector" d="M12 22C6.47716 22 2 17.5228 2 12C2 6.47716 6.47716 2 12 2C17.5228 2 22 6.47716 22 12C22 17.5228 17.5228 22 12 22Z" stroke="#0560FA" stroke-opacity="1.000000" stroke-width="1.500000" stroke-linejoin="round"/>
	<path id="Vector" d="M12.12 12.78C12.05 12.77 11.96 12.77 11.88 12.78C10.12 12.72 8.71997 11.28 8.71997 9.50998C8.71997 7.69998 10.18 6.22998 12 6.22998C13.81 6.22998 15.28 7.69998 15.28 9.50998C15.27 11.28 13.88 12.72 12.12 12.78Z" fill="#FFFFFF" fill-opacity="1.000000" fill-rule="nonzero"/>
	<path id="Vector" d="M11.88 12.78C10.12 12.72 8.71997 11.28 8.71997 9.50998C8.71997 7.69998 10.18 6.22998 12 6.22998C13.81 6.22998 15.28 7.69998 15.28 9.50998C15.27 11.28 13.88 12.72 12.12 12.78C12.05 12.77 11.96 12.77 11.88 12.78Z" stroke="#0560FA" stroke-opacity="1.000000" stroke-width="1.500000" stroke-linejoin="round"/>
	<path id="Vector" d="M18.74 19.3801C16.96 21.0101 14.6 22.0001 12 22.0001C9.40001 22.0001 7.04001 21.0101 5.26001 19.3801C5.36002 18.4401 5.96001 17.5201 7.03001 16.8001C9.77 14.9801 14.25 14.9801 16.97 16.8001C18.04 17.5201 18.64 18.4401 18.74 19.3801Z" fill="#FFFFFF" fill-opacity="1.000000" fill-rule="nonzero"/>
	<path id="Vector" d="M12 22.0001C9.40001 22.0001 7.04001 21.0101 5.26001 19.3801C5.36002 18.4401 5.96001 17.5201 7.03001 16.8001C9.77 14.9801 14.25 14.9801 16.97 16.8001C18.04 17.5201 18.64 18.4401 18.74 19.3801C16.96 21.0101 14.6 22.0001 12 22.0001Z" stroke="#0560FA" stroke-opacity="1.000000" stroke-width="1.500000" stroke-linejoin="round"/>
	<g opacity="0.000000"/>
</svg>
