<svg width="24.000000" height="24.000000" viewBox="0 0 24 24" fill="none" xmlns="http://www.w3.org/2000/svg" xmlns:xlink="http://www.w3.org/1999/xlink">
	<desc>
			Created with Pixso.
	</desc>
	<defs/>
	<rect id="vuesax/linear/smart-car" width="24.000000" height="24.000000" fill="#FFFFFF" fill-opacity="0"/>
	<path id="Vector" d="M6.87001 7.62012C5.01001 7.62012 4.59002 8.55014 4.36002 9.70013L3.51001 13.7501L15.51 13.7501L14.66 9.70013C14.41 8.55014 14 7.62012 12.14 7.62012L6.87001 7.62012Z" stroke="#0560FA" stroke-opacity="1.000000" stroke-width="1.500000" stroke-linejoin="round"/>
	<path id="Vector" d="M16.99 20.3602C17.07 21.2402 16.37 22.0002 15.47 22.0002L14.06 22.0002C13.25 22.0002 13.14 21.6502 12.99 21.2302L12.84 20.7803C12.63 20.1703 12.49 19.7502 11.41 19.7502L7.57001 19.7502C6.49001 19.7502 6.33 20.2203 6.14 20.7803L5.99001 21.2302C5.85001 21.6602 5.74 22.0002 4.92 22.0002L3.50999 22.0002C2.60999 22.0002 1.90001 21.2402 1.99001 20.3602L2.41 15.7902C2.52 14.6602 2.73 13.7402 4.7 13.7402L14.27 13.7402C16.24 13.7402 16.45 14.6602 16.56 15.7902L16.99 20.3602Z" fill="#0560FA" fill-opacity="1.000000" fill-rule="nonzero"/>
	<path id="Vector" d="M15.47 22.0002L14.06 22.0002C13.25 22.0002 13.14 21.6502 12.99 21.2302L12.84 20.7803C12.63 20.1703 12.49 19.7502 11.41 19.7502L7.57001 19.7502C6.49001 19.7502 6.33 20.2203 6.14 20.7803L5.99001 21.2302C5.85001 21.6602 5.74 22.0002 4.92 22.0002L3.50999 22.0002C2.60999 22.0002 1.90001 21.2402 1.99001 20.3602L2.41 15.7902C2.52 14.6602 2.73 13.7402 4.7 13.7402L14.27 13.7402C16.24 13.7402 16.45 14.6602 16.56 15.7902L16.99 20.3602C17.07 21.2402 16.37 22.0002 15.47 22.0002Z" stroke="#0560FA" stroke-opacity="1.000000" stroke-width="1.500000" stroke-linejoin="round"/>
	<path id="Vector" d="M3.5 11.5L2.75 11.5" stroke="#0560FA" stroke-opacity="1.000000" stroke-width="1.500000" stroke-linejoin="round" stroke-linecap="round"/>
	<path id="Vector" d="M16.25 11.5L15.5 11.5" stroke="#0560FA" stroke-opacity="1.000000" stroke-width="1.500000" stroke-linejoin="round" stroke-linecap="round"/>
	<path id="Vector" d="M5 16.75L7.25 16.75" stroke="#FFFFFF" stroke-opacity="1.000000" stroke-width="1.500000" stroke-linejoin="round" stroke-linecap="round"/>
	<path id="Vector" d="M11.75 16.75L14 16.75" stroke="#FFFFFF" stroke-opacity="1.000000" stroke-width="1.500000" stroke-linejoin="round" stroke-linecap="round"/>
	<path id="Vector" d="M18.71 8.74017C18.99 8.09015 18.89 7.21017 18.37 6.44019C17.86 5.67017 17.08 5.24017 16.37 5.25018" stroke="#0560FA" stroke-opacity="1.000000" stroke-width="1.500000" stroke-linejoin="round" stroke-linecap="round"/>
	<path id="Vector" d="M21.82 9.72998C22.24 8.21997 21.94 6.37003 20.87 4.77002C19.8 3.17001 18.2 2.19 16.64 2" stroke="#0560FA" stroke-opacity="1.000000" stroke-width="1.500000" stroke-linejoin="round" stroke-linecap="round"/>
	<g opacity="0.000000"/>
</svg>
