<svg width="24.000000" height="24.000000" viewBox="0 0 24 24" fill="none" xmlns="http://www.w3.org/2000/svg" xmlns:xlink="http://www.w3.org/1999/xlink">
	<desc>
			Created with Pixso.
	</desc>
	<defs/>
	<path id="Vector" d="M13 11.1499L7 11.1499" stroke="#A7A7A7" stroke-opacity="1.000000" stroke-width="1.500000" stroke-linejoin="round" stroke-linecap="round"/>
	<path id="Vector" d="M2 11.1498L2 6.52985C2 4.48984 3.65002 2.83984 5.69 2.83984L11.31 2.83984C13.35 2.83984 15 4.10983 15 6.14984" stroke="#A7A7A7" stroke-opacity="1.000000" stroke-width="1.500000" stroke-linejoin="round" stroke-linecap="round"/>
	<path id="Vector" d="M16.94 14.1799C17.19 15.1099 18.11 15.6999 19.07 15.6999L20 15.6999L20 17.1499C20 19.3599 18.21 21.1499 16 21.1499L6 21.1499C3.78998 21.1499 2 19.3599 2 17.1499L2 10.1499C2 7.93991 3.78998 6.1499 6 6.1499L16 6.1499C18.2 6.1499 20 7.94989 20 10.1499L20 11.5999L18.92 11.5999C18.36 11.5999 17.85 11.8199 17.48 12.1999C16.98 12.6799 16.74 13.4199 16.94 14.1799Z" stroke="#A7A7A7" stroke-opacity="1.000000" stroke-width="1.500000" stroke-linejoin="round"/>
	<path id="Vector" d="M22 14.6801C22 15.2401 21.54 15.7001 20.97 15.7001L19.04 15.7001C17.96 15.7001 16.97 14.9101 16.88 13.8301C16.82 13.2001 17.06 12.6101 17.48 12.2001C17.85 11.8201 18.36 11.6001 18.92 11.6001L20.97 11.6001C21.54 11.6001 22 12.0601 22 12.6201L22 14.6801Z" stroke="#A7A7A7" stroke-opacity="1.000000" stroke-width="1.500000" stroke-linejoin="round"/>
	<g opacity="0.000000"/>
</svg>
